<!DOCTYPE svg PUBLIC "-//W3C//DTD SVG 20010904//EN" "http://www.w3.org/TR/2001/REC-SVG-20010904/DTD/svg10.dtd">
<svg version="1.0" xmlns="http://www.w3.org/2000/svg" width="954px" height="543px" viewBox="0 0 9540 5430" preserveAspectRatio="xMidYMid meet">
<g id="layer101" fill="#000000" stroke="none">
<path d="M830 5104 c-6 -14 -10 -47 -10 -74 0 -27 -4 -52 -10 -55 -5 -3 -10 -15 -10 -26 0 -10 -4 -19 -10 -19 -5 0 -10 -11 -10 -24 0 -23 -98 -136 -118 -136 -6 0 -12 -3 -14 -7 -1 -5 -28 -19 -58 -32 -30 -13 -63 -27 -72 -32 -10 -5 -40 -9 -67 -9 -42 0 -49 -3 -55 -22 -8 -30 -8 -3806 0 -3835 5 -19 13 -23 47 -23 64 0 210 -57 221 -86 3 -8 10 -14 16 -14 14 0 60 -46 60 -60 0 -6 9 -20 20 -32 11 -12 20 -30 20 -40 0 -10 5 -18 10 -18 6 0 10 -16 10 -35 0 -19 4 -35 9 -35 5 0 11 -23 13 -51 3 -27 9 -54 14 -59 8 -8 2884 -12 7619 -10 l320 0 3 72 c1 40 7 77 12 82 6 6 10 18 10 28 0 10 5 18 10 18 6 0 10 7 10 15 0 14 16 37 47 70 7 8 13 16 13 20 0 10 22 29 53 44 15 8 27 18 27 23 0 4 9 8 20 8 11 0 20 5 20 10 0 6 9 10 19 10 11 0 23 4 26 10 3 5 17 10 30 10 13 0 27 5 30 10 3 6 26 10 50 10 28 0 45 5 48 14 6 15 8 393 10 2487 2 1302 2 1337 -17 1358 -15 16 -31 21 -72 21 -29 0 -56 5 -59 10 -3 6 -16 10 -28 10 -12 0 -33 9 -47 20 -14 11 -29 20 -33 20 -14 0 -117 112 -117 126 0 8 -4 14 -10 14 -5 0 -10 9 -10 19 0 11 -4 23 -10 26 -5 3 -10 17 -10 31 0 13 -4 24 -10 24 -5 0 -10 23 -10 51 0 28 -5 59 -10 70 -11 19 -66 19 -3971 19 l-3959 0 -10 -26z"/>
</g>
<g id="layer102" fill="#40323c" stroke="none">
<path d="M830 5104 c-6 -14 -10 -47 -10 -74 0 -27 -4 -52 -10 -55 -5 -3 -10 -15 -10 -26 0 -10 -4 -19 -10 -19 -5 0 -10 -11 -10 -24 0 -23 -98 -136 -118 -136 -6 0 -12 -3 -14 -7 -1 -5 -28 -19 -58 -32 -30 -13 -63 -27 -72 -32 -10 -5 -40 -9 -67 -9 -42 0 -49 -3 -55 -22 -8 -30 -8 -3806 0 -3835 5 -19 13 -23 47 -23 64 0 210 -57 221 -86 3 -8 10 -14 16 -14 14 0 60 -46 60 -60 0 -6 9 -20 20 -32 11 -12 20 -30 20 -40 0 -10 5 -18 10 -18 6 0 10 -16 10 -35 0 -19 4 -35 9 -35 5 0 11 -23 13 -51 3 -27 9 -54 14 -59 8 -8 2884 -12 7619 -10 l320 0 3 72 c1 40 7 77 12 82 6 6 10 18 10 28 0 10 5 18 10 18 6 0 10 7 10 15 0 14 16 37 47 70 7 8 13 16 13 20 0 10 22 29 53 44 15 8 27 18 27 23 0 4 9 8 20 8 11 0 20 5 20 10 0 6 9 10 19 10 11 0 23 4 26 10 3 5 17 10 30 10 13 0 27 5 30 10 3 6 26 10 50 10 28 0 45 5 48 14 6 15 8 393 10 2487 2 1302 2 1337 -17 1358 -15 16 -31 21 -72 21 -29 0 -56 5 -59 10 -3 6 -16 10 -28 10 -12 0 -33 9 -47 20 -14 11 -29 20 -33 20 -14 0 -117 112 -117 126 0 8 -4 14 -10 14 -5 0 -10 9 -10 19 0 11 -4 23 -10 26 -5 3 -10 17 -10 31 0 13 -4 24 -10 24 -5 0 -10 23 -10 51 0 28 -5 59 -10 70 -11 19 -66 19 -3971 19 l-3959 0 -10 -26z m3155 -2605 c3 -4 -8 -3 -25 2 -16 6 -32 15 -35 20 -3 4 8 3 25 -2 16 -6 32 -15 35 -20z m1966 -14 c-1 -6 -15 -32 -33 -60 -52 -81 -708 -728 -723 -714 -2 3 55 59 127 124 320 291 643 632 609 643 -38 13 -399 -249 -761 -553 -47 -39 -92 -75 -100 -80 -38 -22 21 33 134 123 412 332 566 447 683 507 49 25 65 27 64 10z m-1609 -372 c-19 -7 -4 -23 21 -23 13 0 17 -3 10 -8 -21 -13 10 -38 52 -40 45 -3 62 -12 22 -12 -14 0 -29 -4 -32 -10 -3 -5 2 -10 11 -10 10 0 14 -3 11 -7 -4 -4 24 -37 63 -75 38 -37 70 -74 70 -81 -1 -12 -64 52 -220 223 l-85 93 45 -23 c25 -13 39 -25 32 -27z m23 -142 c22 -25 25 -30 9 -21 -12 8 -30 27 -39 44 -10 17 -14 27 -9 21 5 -5 23 -25 39 -44z m251 -173 l29 -33 -32 29 c-18 17 -33 31 -33 33 0 8 8 1 36 -29z m77 -81 c-3 -4 -13 2 -24 14 -26 30 -24 34 5 12 13 -10 22 -22 19 -26z m33 -32 c3 -8 14 -17 25 -20 10 -4 19 -13 19 -21 0 -8 7 -14 16 -14 8 0 13 -4 9 -9 -3 -5 7 -19 22 -30 31 -23 29 -21 79 -78 20 -24 43 -43 52 -43 8 0 12 -3 9 -7 -4 -4 5 -19 20 -35 15 -15 25 -28 22 -28 -2 0 -72 68 -154 150 -82 83 -144 150 -137 150 7 0 15 -7 18 -15z m-646 -119 c0 -8 8 -24 18 -36 17 -21 18 -21 49 -4 42 25 63 8 63 -51 0 -53 24 -80 46 -50 8 10 14 16 14 13 0 -4 2 -13 5 -20 10 -24 -36 -18 -73 10 -20 15 -32 20 -27 12 14 -25 -66 53 -87 85 l-20 30 7 -30 c4 -16 11 -33 17 -36 7 -5 -16 -16 -39 -19 -2 0 -12 -9 -23 -20 -25 -25 -26 -56 -1 -70 26 -13 49 -3 53 23 2 15 6 18 11 10 10 -16 -29 -55 -50 -51 -9 2 -25 15 -35 29 -16 21 -17 29 -7 52 6 14 24 31 39 37 25 10 27 15 22 56 -3 29 -1 44 7 44 6 0 11 -6 11 -14z m580 -70 c0 -2 -48 -46 -107 -97 -59 -52 -118 -104 -132 -117 -13 -12 -26 -20 -29 -17 -3 3 -3 6 -1 8 29 22 245 213 247 219 4 8 22 12 22 4z m-605 -94 c-8 -9 -25 20 -18 31 3 5 10 2 15 -7 6 -10 7 -20 3 -24z m293 -88 c35 -17 38 -24 8 -22 -32 3 -61 32 -70 73 l-8 30 24 -35 c13 -19 34 -40 46 -46z m442 32 c0 -1 -61 -56 -135 -120 -74 -64 -135 -121 -135 -125 0 -5 -6 -11 -14 -14 -8 -3 -52 39 -115 111 l-102 117 100 -105 c56 -58 101 -109 101 -114 0 -5 10 2 23 15 27 30 266 239 272 239 3 0 5 -2 5 -4z m-468 -100 c5 4 27 -19 118 -125 l55 -64 -52 34 c-39 26 -49 37 -41 47 8 9 7 11 -3 7 -9 -3 -23 10 -39 39 -31 58 -39 51 -10 -9 17 -35 20 -49 11 -58 -8 -8 -11 -7 -11 5 0 21 -38 34 -53 19 -17 -17 -31 -13 -16 5 7 9 22 14 36 11 25 -5 32 8 8 17 -8 3 -12 12 -9 21 7 17 -10 46 -63 108 -24 29 -19 25 15 -10 27 -28 52 -50 54 -47z m58 16 c0 -5 15 -16 34 -25 33 -15 36 -15 59 4 14 10 29 19 34 19 4 0 0 -5 -9 -11 -14 -8 -15 -13 -6 -23 7 -8 20 -11 28 -9 8 3 5 -2 -8 -12 -20 -15 -22 -23 -17 -56 4 -21 5 -39 3 -39 -2 0 -14 14 -27 31 -17 23 -20 33 -11 44 9 11 7 12 -7 9 -12 -3 -32 9 -58 35 -21 23 -34 41 -27 41 7 0 12 -4 12 -8z m793 -16 c10 -8 14 -17 9 -20 -5 -3 -17 3 -27 14 -21 23 -9 26 18 6z m73 -65 c14 -11 21 -22 16 -25 -5 -3 -20 6 -32 19 -28 30 -18 33 16 6z m-937 -76 c40 -10 58 -11 68 -3 17 13 70 -22 133 -89 l45 -47 -51 46 c-59 53 -90 72 -106 62 -7 -5 -8 -2 -3 7 6 11 5 11 -4 3 -9 -9 -28 -7 -72 5 -52 13 -61 14 -69 1 -5 -8 -12 -11 -16 -7 -5 5 12 38 20 37 0 0 26 -7 55 -15z m1056 -13 c30 -6 30 -6 5 -13 l-25 -6 25 -11 c14 -6 18 -11 10 -11 -9 -1 -31 13 -50 30 -24 20 -28 28 -15 24 11 -3 34 -9 50 -13z m-775 -68 c12 -12 35 -28 51 -34 33 -14 35 -18 13 -35 -14 -10 -13 -14 13 -36 16 -14 28 -30 25 -37 -6 -18 28 -27 40 -11 7 11 8 9 6 -6 -6 -34 -35 -22 -72 29 -29 41 -33 53 -23 65 7 9 8 16 2 18 -57 22 -81 41 -91 73 -7 19 -9 39 -6 45 3 5 9 -4 13 -19 5 -16 18 -39 29 -52z m-274 25 c69 -18 82 -24 73 -35 -15 -18 -40 -18 -33 0 7 19 -134 55 -146 36 -4 -7 -13 -9 -19 -6 -16 10 -4 26 20 26 11 0 58 -10 105 -21z m-83 -28 c10 -4 -7 -7 -37 -7 -43 0 -53 3 -44 13 10 12 34 10 81 -6z m87 -25 c34 -12 34 -13 13 -25 -18 -9 -22 -9 -17 2 3 9 -7 18 -28 24 -18 6 -26 11 -18 11 8 0 31 -5 50 -12z m-145 -7 l20 -9 -20 2 c-11 0 -28 -2 -38 -7 -20 -9 -32 -1 -22 14 7 13 32 13 60 0z m100 -29 c14 -6 23 -14 20 -20 -8 -14 -36 -13 -32 1 1 6 -14 18 -33 25 -27 11 -29 13 -8 9 15 -3 39 -10 53 -15z m-160 -10 c-28 -12 -47 -12 -40 0 3 6 18 10 33 9 24 0 25 -1 7 -9z m-45 -35 c-7 -8 -20 -15 -29 -15 -10 0 -12 -3 -5 -8 17 -10 -9 -32 -26 -22 -10 6 -6 14 16 34 33 29 65 37 44 11z m182 5 c6 0 6 -6 -2 -15 -16 -19 -34 -20 -27 -1 3 8 3 17 -1 19 -4 2 -1 2 6 0 8 -1 18 -3 24 -3z m-42 -39 c0 -11 -29 -35 -35 -29 -10 9 7 38 21 38 8 0 14 -4 14 -9z m-215 -32 c10 -14 1 -21 -19 -13 -9 3 -13 10 -10 15 7 12 21 11 29 -2z m752 -17 c-24 -27 -21 -39 13 -57 31 -16 32 -35 2 -35 -13 0 -14 2 -4 9 10 6 7 12 -12 25 -14 9 -26 21 -26 27 0 13 34 58 39 53 2 -2 -3 -12 -12 -22z m-587 3 c0 -9 -9 -15 -22 -14 -17 1 -19 2 -5 6 9 2 17 9 17 14 0 5 2 9 5 9 3 0 5 -7 5 -15z m-186 -14 c19 -7 18 -8 -4 -14 -25 -6 -40 -2 -40 14 0 11 17 11 44 0z m-17 -168 c14 -18 23 -40 19 -48 -7 -18 -46 -20 -46 -2 0 6 -7 3 -16 -8 -12 -16 -18 -17 -32 -8 -10 6 -29 9 -43 7 -40 -7 -53 10 -55 71 -1 40 2 58 12 62 11 4 11 10 3 26 -9 17 -8 23 7 34 17 13 24 9 72 -44 29 -32 65 -73 79 -90z m-17 137 c13 -8 12 -10 -3 -10 -11 0 -15 -5 -11 -11 4 -8 0 -7 -15 1 -12 6 -19 15 -16 21 8 12 26 11 45 -1z m670 -3 c-14 -8 -27 -12 -30 -10 -7 6 23 23 40 23 8 0 4 -6 -10 -13z m118 -27 c15 -10 15 -10 -4 -5 -15 4 -26 -3 -42 -25 -34 -45 -89 -37 -106 15 -4 15 0 12 15 -7 11 -16 29 -28 39 -28 23 0 60 45 60 74 1 19 2 19 11 4 5 -10 17 -22 27 -28z m977 -28 c3 -8 -8 -3 -24 10 -17 13 -30 27 -30 31 -1 11 47 -25 54 -41z m-1681 22 c18 -7 22 -34 5 -34 -5 0 -8 4 -4 9 3 6 -3 14 -12 20 -20 12 -13 14 11 5z"/>
<path d="M4142 1512 c-13 -10 -20 -21 -17 -24 4 -4 15 2 26 13 11 11 25 16 31 13 9 -6 9 -9 0 -12 -18 -6 -15 -32 4 -32 11 0 14 8 12 27 -4 34 -25 39 -56 15z"/>
<path d="M3807 773 c-7 -10 130 -167 149 -171 26 -6 14 15 -57 96 -69 79 -83 90 -92 75z"/>
<path d="M3790 708 c1 -7 23 -38 50 -67 35 -38 53 -52 60 -45 8 8 -4 28 -37 67 -45 54 -74 72 -73 45z"/>
<path d="M3794 656 c-9 -24 7 -50 35 -54 27 -4 26 6 -4 43 -22 26 -25 27 -31 11z"/>
</g>
<g id="layer103" fill="#655f63" stroke="none">
<path d="M830 5104 c-6 -14 -10 -47 -10 -74 0 -27 -4 -52 -10 -55 -5 -3 -10 -15 -10 -26 0 -10 -4 -19 -10 -19 -5 0 -10 -11 -10 -24 0 -23 -98 -136 -118 -136 -6 0 -12 -3 -14 -7 -1 -5 -28 -19 -58 -32 -30 -13 -63 -27 -72 -32 -10 -5 -40 -9 -67 -9 -42 0 -49 -3 -55 -22 -8 -30 -8 -3806 0 -3835 5 -19 13 -23 47 -23 64 0 210 -57 221 -86 3 -8 10 -14 16 -14 14 0 60 -46 60 -60 0 -6 9 -20 20 -32 11 -12 20 -30 20 -40 0 -10 5 -18 10 -18 6 0 10 -16 10 -35 0 -19 4 -35 9 -35 5 0 11 -23 13 -51 3 -27 9 -54 14 -59 8 -8 2884 -12 7619 -10 l320 0 3 72 c1 40 7 77 12 82 6 6 10 18 10 28 0 10 5 18 10 18 6 0 10 7 10 15 0 14 16 37 47 70 7 8 13 16 13 20 0 10 22 29 53 44 15 8 27 18 27 23 0 4 9 8 20 8 11 0 20 5 20 10 0 6 9 10 19 10 11 0 23 4 26 10 3 5 17 10 30 10 13 0 27 5 30 10 3 6 26 10 50 10 28 0 45 5 48 14 6 15 8 393 10 2487 2 1302 2 1337 -17 1358 -15 16 -31 21 -72 21 -29 0 -56 5 -59 10 -3 6 -16 10 -28 10 -12 0 -33 9 -47 20 -14 11 -29 20 -33 20 -14 0 -117 112 -117 126 0 8 -4 14 -10 14 -5 0 -10 9 -10 19 0 11 -4 23 -10 26 -5 3 -10 17 -10 31 0 13 -4 24 -10 24 -5 0 -10 23 -10 51 0 28 -5 59 -10 70 -11 19 -66 19 -3971 19 l-3959 0 -10 -26z m7860 -123 c0 -22 5 -43 10 -46 6 -3 10 -17 10 -31 0 -13 3 -24 8 -24 4 0 18 -21 32 -47 30 -57 36 -66 74 -101 16 -15 38 -36 50 -47 26 -25 136 -79 193 -94 l43 -12 0 -1817 c0 -999 -3 -1827 -6 -1839 -4 -16 -14 -23 -30 -23 -12 0 -26 -5 -29 -10 -3 -6 -17 -10 -31 -10 -13 0 -24 -4 -24 -10 0 -5 -6 -10 -13 -10 -20 0 -73 -28 -87 -45 -7 -8 -17 -15 -23 -15 -18 0 -94 -84 -117 -130 -12 -25 -27 -48 -32 -51 -5 -3 -9 -10 -8 -15 0 -5 -6 -25 -13 -44 -8 -19 -19 -45 -23 -58 l-9 -22 -3869 0 -3870 0 -13 37 c-7 21 -11 44 -8 51 2 6 1 12 -4 12 -4 0 -18 22 -31 50 -13 27 -32 57 -42 67 -10 9 -18 20 -18 25 0 11 -66 78 -77 78 -4 0 -21 13 -38 28 -33 31 -125 72 -161 72 -12 0 -26 6 -31 13 -4 6 -9 833 -10 1836 -2 1710 -1 1825 15 1837 9 8 25 14 35 14 16 0 54 17 67 30 3 3 16 7 30 9 14 1 27 6 30 10 3 3 18 15 35 25 44 28 125 107 125 121 0 7 6 18 14 24 24 20 52 80 71 151 0 3 4 15 9 28 l7 22 3880 0 3879 0 0 -39z"/>
<path d="M7913 3818 c3 -10 -730 -13 -3646 -13 -2911 0 -3651 -3 -3654 -12 -4 -10 732 -13 3659 -13 l3663 0 14 -22 c31 -50 174 -345 191 -394 22 -63 3 -66 -25 -4 -27 60 -104 139 -142 146 -25 5 -37 1 -57 -19 -42 -42 -36 -99 19 -206 25 -48 45 -92 45 -99 0 -11 -17 -17 -64 -24 -15 -2 -27 16 -62 97 -55 125 -110 208 -135 202 -10 -3 -24 2 -30 10 -15 18 -63 43 -82 43 -30 0 -60 -36 -66 -80 l-6 -44 -25 36 c-26 40 -94 88 -121 88 -10 0 -31 -11 -46 -24 -25 -22 -28 -31 -28 -86 0 -46 -3 -57 -10 -44 -63 108 -114 154 -171 154 -43 0 -74 -38 -74 -92 0 -35 52 -159 82 -195 14 -17 5 -26 -19 -19 -47 15 -137 120 -213 251 -13 22 -29 43 -34 47 -15 11 -76 10 -76 0 0 -21 344 -697 365 -718 18 -17 35 -24 65 -24 22 0 40 5 40 11 0 6 -13 29 -29 53 -35 51 -155 263 -206 366 l-37 75 38 -36 c78 -73 219 -150 245 -133 6 3 -12 47 -41 100 -55 102 -100 212 -100 245 0 11 8 23 17 26 23 9 80 -57 128 -147 24 -47 41 -70 50 -66 9 3 24 -12 39 -39 56 -95 178 -166 261 -151 32 6 85 46 85 64 0 18 -33 23 -42 8 -17 -30 -44 -37 -81 -21 -105 44 -266 317 -201 342 40 15 104 -55 184 -200 47 -86 72 -105 119 -91 l30 9 -36 60 c-66 112 -96 225 -58 225 19 0 83 -81 120 -153 22 -42 35 -57 47 -53 18 4 49 -71 87 -211 11 -40 22 -77 26 -83 11 -17 43 -11 59 12 22 32 20 60 -9 102 l-24 36 74 0 c64 0 75 3 75 17 0 9 -25 71 -56 136 -63 133 -78 197 -49 197 25 0 67 -50 110 -131 20 -38 44 -73 54 -79 26 -13 47 -95 34 -131 -9 -24 -8 -28 11 -33 11 -3 36 -6 55 -6 l33 0 -4 68 -3 68 36 -46 c81 -103 141 -126 190 -74 38 41 34 121 -13 215 -74 150 -192 221 -304 185 -18 -6 -26 6 -73 126 -29 73 -55 139 -58 146 -4 9 81 12 407 12 325 0 411 3 407 13 -3 9 -97 12 -421 13 -300 1 -420 4 -428 12 -17 17 -112 16 -105 0z m356 -376 c107 -72 217 -265 179 -314 -24 -32 -69 0 -130 93 -71 107 -139 234 -131 243 13 13 41 5 82 -22z"/>
<path d="M3904 2523 c20 -39 226 -295 295 -368 93 -98 98 -105 81 -115 -12 -8 -13 -13 -2 -30 7 -12 8 -20 2 -20 -5 0 -10 -5 -10 -11 0 -7 11 -9 28 -6 21 4 31 1 40 -13 7 -12 8 -20 1 -22 -6 -2 -7 -11 -4 -21 4 -9 11 -14 16 -11 12 7 11 -8 -2 -42 l-10 -28 26 28 c25 27 27 27 40 10 8 -11 15 -24 15 -31 0 -6 23 -35 51 -65 97 -102 106 -115 123 -166 10 -29 22 -50 27 -46 5 3 9 -2 9 -11 0 -9 7 -26 15 -39 15 -22 13 -25 -112 -136 -69 -62 -132 -113 -140 -113 -7 0 -13 -5 -13 -11 0 -6 -22 12 -50 39 -27 27 -48 51 -46 53 3 2 0 16 -5 32 -8 21 -15 27 -30 23 -12 -4 -29 4 -45 21 -15 14 -30 24 -34 21 -7 -5 -70 58 -89 90 -11 18 -12 16 -6 -10 4 -16 11 -31 16 -33 5 -2 9 -9 9 -14 0 -6 -3 -8 -6 -5 -11 11 -84 -36 -84 -53 0 -24 34 -52 54 -44 20 8 21 28 1 44 -13 11 -14 10 -9 -4 3 -9 2 -16 -4 -16 -14 0 -23 28 -11 36 13 8 61 -24 54 -36 -6 -9 16 -15 39 -11 18 3 94 -50 139 -97 25 -28 61 -80 79 -116 18 -36 41 -69 51 -72 10 -3 49 -34 86 -69 73 -69 127 -159 116 -194 -4 -14 0 -26 14 -38 12 -10 21 -21 21 -26 0 -5 -7 -3 -16 4 -14 11 -18 10 -29 -5 -16 -21 -10 -43 17 -57 27 -14 65 12 77 54 5 17 10 26 10 20 1 -11 50 -43 67 -43 3 0 -8 13 -26 30 l-31 29 25 28 c27 29 21 53 -15 53 -23 0 -33 -16 -15 -23 8 -3 17 -1 19 6 2 7 8 8 13 4 9 -9 -7 -40 -21 -40 -17 -1 -91 116 -77 120 6 3 12 8 12 12 0 12 -52 33 -59 24 -4 -4 -5 -7 -2 -6 2 1 12 -2 23 -8 14 -8 17 -14 9 -23 -6 -7 -9 -16 -6 -19 3 -4 2 -4 -3 -1 -7 5 -8 9 -11 35 0 5 -5 8 -10 5 -4 -3 -17 4 -27 17 -16 18 -16 19 -1 8 21 -16 23 1 2 19 -8 7 -15 9 -15 4 0 -4 -11 3 -25 16 -14 13 -25 21 -25 17 0 -3 -25 11 -55 32 -37 26 -64 55 -81 86 -13 26 -23 49 -21 52 8 8 66 -70 60 -80 -3 -6 -2 -7 4 -4 5 3 27 -15 48 -40 21 -26 41 -41 43 -35 2 6 14 0 27 -16 20 -22 24 -24 25 -9 0 9 -4 17 -10 17 -5 0 -28 25 -50 56 -32 43 -39 58 -30 69 9 11 7 12 -7 9 -11 -3 -29 6 -47 25 -33 34 -29 38 14 16 27 -14 30 -13 59 11 17 14 31 21 31 16 0 -5 -7 -13 -16 -16 -12 -5 -13 -8 -2 -20 9 -10 17 -11 26 -4 6 6 12 6 12 2 0 -5 -9 -15 -20 -22 -22 -14 -25 -29 -10 -67 10 -27 10 -27 28 -7 34 39 262 233 262 222 0 -5 6 -10 13 -10 6 0 29 -16 49 -35 56 -54 172 -145 183 -145 6 0 18 -9 28 -20 10 -12 21 -18 26 -16 5 3 14 -1 21 -9 7 -8 17 -15 23 -15 5 0 25 -11 43 -25 18 -14 36 -25 40 -25 3 0 23 -14 43 -30 20 -17 43 -36 51 -43 8 -7 16 -10 18 -8 2 2 32 -23 66 -55 34 -33 77 -70 96 -84 18 -14 45 -34 59 -46 79 -63 334 -214 362 -214 7 0 21 -7 31 -17 12 -11 18 -12 18 -4 0 14 -29 46 -41 46 -4 0 -11 4 -16 9 -5 5 -3 6 5 2 10 -6 12 7 10 62 l-2 69 -35 13 c-20 7 -30 15 -23 18 7 2 19 -2 28 -8 8 -7 17 -10 20 -7 8 7 -34 67 -47 67 -5 0 -9 5 -9 10 0 6 11 8 28 4 l27 -7 -20 23 c-11 13 -38 32 -60 42 -37 18 -25 20 20 3 17 -6 16 -4 -5 17 -14 14 -39 30 -55 36 -29 11 -28 11 10 6 30 -4 36 -3 25 5 -13 9 -13 11 -1 11 11 0 12 3 4 11 -9 9 -37 8 -110 -5 -134 -22 -175 -21 -191 4 -12 19 -9 20 65 22 102 2 106 2 121 12 7 4 30 5 50 2 l37 -6 -40 26 c-22 14 -32 23 -22 20 28 -9 10 12 -26 31 -20 10 -56 16 -101 16 -66 0 -68 1 -41 14 15 8 45 13 66 11 22 -2 39 0 39 4 0 10 -30 38 -41 38 -5 0 -9 6 -9 14 0 13 -29 28 -75 40 -11 3 2 3 29 0 43 -5 47 -4 35 9 -8 7 -28 19 -44 25 l-30 12 28 -4 c31 -4 37 10 8 19 -10 3 -21 18 -24 34 -4 21 -15 32 -38 40 -17 6 -35 9 -39 6 -14 -8 -163 -20 -240 -19 -41 1 -103 9 -138 17 -62 14 -63 14 -43 -4 11 -11 35 -22 53 -26 32 -7 32 -7 8 -13 -25 -6 -25 -6 8 -20 17 -8 32 -20 32 -26 0 -6 12 -16 27 -23 19 -9 23 -15 14 -20 -9 -6 2 -14 32 -27 25 -10 43 -22 41 -25 -2 -4 11 -12 29 -18 25 -9 29 -14 17 -21 -8 -5 -12 -10 -10 -12 31 -20 61 -33 90 -39 l35 -7 -35 -2 -35 -2 30 -13 c17 -8 24 -14 16 -15 -20 0 7 -30 28 -30 12 0 13 -2 3 -8 -9 -6 -1 -16 25 -33 21 -14 37 -30 36 -36 -1 -6 13 -21 32 -34 33 -23 44 -39 27 -39 -5 0 -78 66 -163 147 -189 181 -289 275 -311 294 -41 33 -656 676 -770 804 -69 77 -161 187 -204 245 -66 88 -88 109 -131 130 -29 14 -55 33 -58 43 -4 9 -11 17 -16 17 -5 0 -3 -12 5 -27z m486 -590 c0 -22 -40 19 -61 62 l-20 40 41 -45 c22 -25 40 -51 40 -57z m316 -318 c5 -5 -10 7 -32 28 -22 20 -43 34 -47 31 -4 -4 -7 -1 -7 6 0 8 -45 58 -99 111 -54 53 -105 107 -112 120 -9 18 255 -245 297 -296z m82 -100 c-2 -12 -7 -7 -15 16 -12 30 -11 32 3 17 9 -8 14 -23 12 -33z m198 -165 c87 -85 147 -145 133 -132 -14 12 -28 22 -31 22 -4 0 -32 27 -64 60 -32 32 -60 57 -63 55 -2 -3 -13 9 -24 27 -13 22 -21 28 -26 19 -6 -8 -12 -2 -21 18 -7 17 -19 31 -26 31 -8 0 -14 8 -15 18 0 14 -2 14 -9 -3 -9 -20 -9 -20 -9 1 -1 11 -7 26 -13 33 -8 9 -9 12 -2 10 6 -2 83 -74 170 -159z m-786 46 c-7 -7 -17 -3 -33 12 -19 20 -20 22 -3 16 15 -6 17 -4 11 7 -5 8 1 5 14 -5 15 -14 18 -23 11 -30z m73 -27 c4 -15 2 -18 -7 -10 -7 6 -15 8 -18 5 -3 -3 -9 0 -14 7 -4 7 -3 10 4 5 6 -3 13 -2 17 4 9 14 12 13 18 -11z m218 -273 c11 -22 -1 -10 -143 149 l-90 100 112 -114 c61 -63 116 -124 121 -135z m166 -211 c5 -4 2 -5 -6 0 -11 6 -13 4 -8 -8 9 -23 0 -21 -13 2 -7 15 -7 19 5 17 8 -1 18 -6 22 -11z m937 -36 c14 -7 23 -15 21 -19 -5 -8 96 -99 129 -117 11 -6 21 -18 22 -26 1 -9 -25 4 -67 35 -38 28 -67 54 -64 58 8 12 -62 73 -76 65 -8 -5 -10 -4 -5 3 9 15 9 15 40 1z"/>
<path d="M5855 2445 c-129 -78 -430 -307 -703 -537 -55 -45 -98 -75 -105 -71 -7 4 -23 15 -37 25 -14 10 -37 19 -52 20 -33 3 -37 13 -8 21 32 8 23 26 -22 47 -24 11 -38 20 -33 21 29 2 -79 26 -130 28 -33 1 -78 6 -100 11 -22 5 -87 9 -145 9 -94 0 -101 -1 -70 -12 20 -7 36 -20 38 -31 2 -10 17 -32 33 -47 16 -16 27 -29 23 -29 -4 0 5 -9 19 -20 15 -12 24 -27 21 -35 -7 -16 32 -35 71 -35 13 0 26 -4 29 -9 3 -4 -5 -6 -18 -4 -13 3 -26 0 -30 -5 -7 -12 62 -72 84 -72 12 0 13 -2 1 -9 -11 -7 -9 -10 9 -16 17 -5 19 -9 10 -15 -13 -8 6 -15 85 -33 12 -3 6 -5 -15 -7 -29 -1 -32 -3 -15 -10 11 -5 14 -9 6 -9 -19 -1 4 -28 41 -47 15 -8 28 -20 28 -26 0 -21 69 -78 102 -85 24 -5 28 -8 14 -13 -17 -5 -17 -7 2 -30 10 -13 25 -24 33 -26 8 -1 43 -10 79 -20 85 -22 181 -22 307 1 l102 19 -23 23 c-38 38 -73 45 -181 38 -55 -3 -111 -8 -125 -11 -28 -4 8 7 117 36 40 11 82 20 94 20 22 0 22 0 4 20 -16 18 -30 21 -94 19 -42 -1 -105 -8 -141 -16 -36 -7 -96 -15 -133 -17 -58 -4 -66 -2 -56 10 14 16 33 19 23 3 -3 -6 4 -4 17 4 13 8 76 20 139 26 63 7 121 14 128 17 7 2 10 -1 7 -6 -4 -6 9 -10 29 -10 44 0 52 29 9 31 -17 1 -21 3 -10 6 18 5 24 23 8 23 -5 0 -13 9 -16 20 -4 11 -11 18 -16 15 -5 -4 -9 -1 -9 5 0 6 -3 9 -8 7 -4 -3 -30 1 -57 8 -44 12 -46 14 -17 14 39 1 42 18 5 27 -43 9 -50 12 -29 13 21 1 36 14 321 282 116 109 255 247 309 308 157 174 169 207 51 136z m-805 -635 c0 -5 -12 -10 -27 -9 l-28 1 25 8 c14 4 26 8 28 9 1 1 2 -3 2 -9z m83 -367 c-13 -2 -33 -2 -45 0 -13 2 -3 4 22 4 25 0 35 -2 23 -4z"/>
<path d="M4343 2210 c26 -17 21 -47 -10 -58 -23 -9 -25 -11 -7 -11 27 -1 61 -37 42 -44 -7 -3 1 -6 19 -6 38 -1 56 -21 19 -21 -14 0 -26 -4 -26 -9 0 -13 70 -20 128 -12 30 4 75 4 100 0 70 -12 180 -11 162 1 -11 7 -12 10 -2 10 8 0 12 6 9 13 -2 6 -10 11 -16 9 -6 -1 -14 5 -18 14 -5 13 -7 13 -14 2 -7 -10 -9 -9 -9 4 0 39 -194 66 -313 44 -48 -8 -49 -8 -35 13 15 25 2 54 -28 59 -18 3 -18 2 -1 -8z"/>
<path d="M4270 1909 c0 -11 29 -19 45 -13 25 10 17 21 -15 20 -16 -1 -30 -4 -30 -7z"/>
<path d="M4142 1512 c-13 -10 -20 -21 -17 -24 4 -4 15 2 26 13 19 19 39 18 39 -2 0 -6 -4 -7 -10 -4 -5 3 -10 -1 -10 -9 0 -9 7 -16 16 -16 11 0 14 8 12 27 -4 34 -25 39 -56 15z"/>
<path d="M4295 1141 c-6 -11 42 -27 52 -17 8 8 3 12 -24 20 -12 4 -24 2 -28 -3z"/>
<path d="M4220 1081 c0 -6 85 -30 170 -47 l25 -5 -25 12 c-14 6 -32 13 -40 14 -8 1 -41 9 -72 18 -32 8 -58 12 -58 8z"/>
<path d="M4201 1043 c-13 -14 -12 -15 13 -9 20 5 26 4 20 -5 -5 -9 1 -10 22 -5 23 5 26 4 14 -5 -12 -8 -7 -9 20 -5 25 4 31 3 20 -4 -17 -11 -6 -13 28 -4 36 10 26 19 -45 37 -80 20 -74 20 -92 0z"/>
<path d="M4180 1009 c0 -6 -9 -8 -22 -3 -13 3 -20 4 -17 0 12 -13 139 -44 159 -39 35 9 22 20 -45 37 -76 19 -75 19 -75 5z"/>
<path d="M4144 978 c-4 -5 -15 -8 -25 -5 -11 3 -19 2 -19 -2 0 -10 155 -51 158 -41 7 20 1 24 -53 41 -34 10 -57 13 -61 7z"/>
<path d="M4110 940 c0 -5 18 -14 41 -20 22 -6 47 -14 55 -17 8 -3 14 0 14 6 0 5 -23 17 -52 26 -61 18 -58 17 -58 5z"/>
<path d="M4081 933 c5 -19 -13 -41 -28 -36 -11 4 -14 2 -9 -5 4 -7 2 -12 -3 -12 -28 0 -6 -20 38 -35 49 -16 50 -16 75 6 14 13 26 26 26 30 0 3 -20 12 -45 19 -24 7 -42 16 -40 21 3 4 1 11 -5 14 -6 4 -10 3 -9 -2z"/>
<path d="M4000 835 c0 -8 71 -35 89 -34 9 0 -2 9 -24 20 -39 18 -65 24 -65 14z"/>
<path d="M3960 805 c0 -4 88 -45 96 -45 2 0 4 4 4 9 0 4 -19 16 -43 25 -44 17 -57 19 -57 11z"/>
<path d="M3810 769 c0 -17 133 -167 148 -168 20 -1 13 10 -62 98 -67 78 -86 94 -86 70z"/>
<path d="M3920 775 c0 -6 77 -45 90 -45 24 0 7 19 -30 34 -41 16 -60 20 -60 11z"/>
<path d="M3870 763 c0 -13 87 -109 94 -102 3 3 -9 23 -27 44 -30 38 -31 39 -5 20 15 -11 28 -25 28 -32 0 -13 30 -6 30 7 0 11 -46 39 -69 43 -10 2 -26 9 -35 16 -9 7 -16 9 -16 4z"/>
<path d="M3795 711 c-3 -5 19 -36 49 -68 67 -70 78 -49 14 26 -45 52 -53 57 -63 42z"/>
<path d="M3790 649 c0 -23 22 -49 40 -49 26 0 25 12 -3 38 -26 24 -37 28 -37 11z"/>
</g>
<g id="layer104" fill="#817a7f" stroke="none">
<path d="M830 5104 c-6 -14 -10 -47 -10 -74 0 -27 -4 -52 -10 -55 -5 -3 -10 -15 -10 -26 0 -10 -4 -19 -10 -19 -5 0 -10 -11 -10 -24 0 -23 -98 -136 -118 -136 -6 0 -12 -3 -14 -7 -1 -5 -28 -19 -58 -32 -30 -13 -63 -27 -72 -32 -10 -5 -40 -9 -67 -9 -42 0 -49 -3 -55 -22 -8 -30 -8 -3806 0 -3835 5 -19 13 -23 47 -23 64 0 210 -57 221 -86 3 -8 10 -14 16 -14 14 0 60 -46 60 -60 0 -6 9 -20 20 -32 11 -12 20 -30 20 -40 0 -10 5 -18 10 -18 6 0 10 -16 10 -35 0 -19 4 -35 9 -35 5 0 11 -23 13 -51 3 -27 9 -54 14 -59 8 -8 2884 -12 7619 -10 l320 0 3 72 c1 40 7 77 12 82 6 6 10 18 10 28 0 10 5 18 10 18 6 0 10 7 10 15 0 14 16 37 47 70 7 8 13 16 13 20 0 10 22 29 53 44 15 8 27 18 27 23 0 4 9 8 20 8 11 0 20 5 20 10 0 6 9 10 19 10 11 0 23 4 26 10 3 5 17 10 30 10 13 0 27 5 30 10 3 6 26 10 50 10 28 0 45 5 48 14 6 15 8 393 10 2487 2 1302 2 1337 -17 1358 -15 16 -31 21 -72 21 -29 0 -56 5 -59 10 -3 6 -16 10 -28 10 -12 0 -33 9 -47 20 -14 11 -29 20 -33 20 -14 0 -117 112 -117 126 0 8 -4 14 -10 14 -5 0 -10 9 -10 19 0 11 -4 23 -10 26 -5 3 -10 17 -10 31 0 13 -4 24 -10 24 -5 0 -10 23 -10 51 0 28 -5 59 -10 70 -11 19 -66 19 -3971 19 l-3959 0 -10 -26z m7860 -124 c0 -22 5 -40 10 -40 6 0 10 -13 10 -30 0 -16 3 -30 8 -30 4 0 18 -21 31 -47 44 -85 191 -213 245 -213 9 0 16 -4 16 -10 0 -5 8 -10 19 -10 10 0 32 -5 49 -11 l32 -11 0 -1816 c0 -1000 -3 -1827 -6 -1839 -4 -16 -14 -23 -30 -23 -12 0 -26 -5 -29 -10 -3 -6 -17 -10 -31 -10 -13 0 -24 -4 -24 -10 0 -5 -6 -10 -13 -10 -20 0 -73 -28 -87 -45 -7 -8 -17 -15 -22 -15 -18 0 -95 -86 -118 -130 -12 -25 -28 -48 -34 -52 -6 -4 -8 -8 -5 -8 4 0 -5 -29 -20 -65 l-26 -65 -3870 0 -3870 0 -13 37 c-7 21 -10 43 -8 50 3 7 2 13 -2 13 -4 0 -20 24 -35 54 -15 30 -34 59 -42 66 -8 7 -15 17 -15 22 0 11 -66 78 -77 78 -4 0 -21 13 -38 28 -34 31 -125 72 -161 72 -13 0 -28 8 -33 18 -6 12 -10 681 -10 1836 -1 1724 0 1819 16 1832 10 7 26 14 36 14 16 0 54 17 67 30 3 3 16 7 30 9 14 1 27 6 30 10 3 3 18 15 35 25 44 28 125 107 125 121 0 7 6 18 14 24 19 16 51 78 60 116 4 17 12 42 18 58 l10 27 3879 0 3879 0 0 -40z"/>
<path d="M7913 3818 c3 -10 -729 -13 -3644 -13 -2424 0 -3650 -3 -3651 -10 -2 -7 1223 -11 3657 -13 l3660 -2 14 -22 c31 -50 174 -345 191 -394 22 -63 3 -66 -25 -4 -27 60 -104 139 -142 146 -25 5 -37 1 -57 -19 -42 -42 -36 -99 19 -206 25 -48 45 -92 45 -99 0 -11 -17 -17 -64 -24 -15 -2 -27 16 -62 97 -55 125 -110 208 -135 202 -10 -3 -24 2 -30 10 -15 18 -63 43 -82 43 -30 0 -60 -36 -66 -80 l-6 -44 -25 36 c-26 40 -94 88 -121 88 -10 0 -31 -11 -46 -24 -25 -22 -28 -31 -28 -86 0 -46 -3 -57 -10 -44 -63 108 -114 154 -171 154 -43 0 -74 -38 -74 -92 0 -35 52 -159 82 -195 14 -17 5 -26 -19 -19 -47 15 -137 120 -213 251 -13 22 -29 43 -34 47 -15 11 -76 10 -76 0 0 -21 344 -697 365 -718 18 -17 35 -24 65 -24 22 0 40 5 40 11 0 6 -13 29 -29 53 -35 51 -155 263 -206 366 l-37 75 38 -36 c78 -73 219 -150 245 -133 6 3 -12 47 -41 100 -55 102 -100 212 -100 245 0 11 8 23 17 26 23 9 80 -57 128 -147 24 -47 41 -70 50 -66 9 3 24 -12 39 -39 56 -95 178 -166 261 -151 32 6 85 46 85 64 0 18 -33 23 -42 8 -17 -30 -44 -37 -81 -21 -105 44 -266 317 -201 342 40 15 104 -55 184 -200 47 -86 72 -105 119 -91 l30 9 -36 60 c-66 112 -96 225 -58 225 19 0 83 -81 120 -153 22 -42 35 -57 47 -53 18 4 49 -71 87 -211 11 -40 22 -77 26 -83 11 -17 43 -11 59 12 22 32 20 60 -9 102 l-24 36 74 0 c64 0 75 3 75 17 0 9 -25 71 -56 136 -63 133 -78 197 -49 197 25 0 67 -50 110 -131 20 -38 44 -73 54 -79 26 -13 47 -95 34 -131 -9 -24 -8 -28 11 -33 11 -3 36 -6 55 -6 l33 0 -4 68 -3 68 36 -46 c81 -103 141 -126 190 -74 38 41 34 121 -13 215 -74 150 -192 221 -304 185 -18 -6 -26 6 -73 126 -29 73 -55 139 -58 146 -4 9 81 12 407 12 325 0 411 3 407 13 -3 9 -97 12 -421 13 -300 1 -420 4 -428 12 -17 17 -112 16 -105 0z m356 -376 c107 -72 217 -265 179 -314 -24 -32 -69 0 -130 93 -71 107 -139 234 -131 243 13 13 41 5 82 -22z"/>
<path d="M4306 3608 c-66 -12 -183 -67 -228 -107 -21 -18 -50 -58 -65 -89 -24 -48 -28 -70 -28 -137 0 -114 19 -170 77 -227 31 -32 55 -48 73 -48 38 0 31 30 -14 63 -79 55 -106 177 -67 294 21 64 92 133 174 170 109 49 277 42 406 -17 126 -59 200 -137 304 -327 77 -138 214 -435 205 -444 -21 -20 -203 -56 -325 -63 -209 -13 -388 112 -388 272 0 45 4 58 28 82 36 35 104 48 157 29 44 -16 115 -90 115 -120 0 -14 5 -19 18 -17 25 6 18 55 -16 103 -18 26 -48 50 -85 68 -53 26 -60 27 -113 18 -115 -22 -177 -94 -178 -205 -1 -113 67 -212 182 -267 55 -27 80 -32 166 -36 117 -6 158 1 343 59 l132 41 41 -36 c44 -41 74 -47 89 -18 12 21 5 31 -19 31 -20 0 -55 36 -43 43 26 16 190 50 265 55 l87 5 11 -27 c12 -33 34 -30 38 5 10 81 -168 89 -375 18 -31 -10 -60 -19 -64 -19 -16 0 -89 159 -134 292 -100 293 -195 431 -346 503 -125 59 -287 79 -423 53z"/>
<path d="M6032 3604 c-193 -40 -305 -154 -306 -310 0 -62 4 -80 37 -147 26 -52 54 -90 93 -126 87 -80 154 -86 71 -7 -57 55 -102 142 -117 225 -26 146 31 248 170 303 47 19 75 22 190 23 145 0 188 -9 299 -63 148 -73 241 -230 200 -339 -24 -65 -73 -98 -299 -201 -132 -60 -180 -114 -180 -202 0 -54 19 -88 80 -143 79 -71 193 -107 340 -107 97 0 172 22 218 65 33 30 37 39 37 84 0 41 -5 55 -28 79 -32 34 -99 63 -117 52 -18 -11 -5 -27 27 -35 45 -11 63 -34 63 -78 0 -32 -6 -46 -35 -72 -60 -58 -149 -67 -290 -30 -149 39 -233 146 -178 225 30 43 54 58 209 134 87 42 169 90 194 112 48 43 79 103 80 150 1 152 -207 344 -432 398 -90 22 -247 27 -326 10z"/>
<path d="M704 3535 c-107 -49 -111 -178 -8 -221 73 -31 157 -15 291 54 l72 37 26 -25 c42 -39 126 -172 215 -339 86 -162 133 -241 183 -304 34 -44 34 -45 -50 -77 -195 -74 -428 -32 -569 102 -117 111 -127 241 -22 283 85 34 177 -7 212 -95 26 -64 59 -44 37 23 -33 97 -168 154 -269 112 -143 -60 -162 -235 -39 -355 157 -151 525 -201 730 -98 l38 19 47 -42 c56 -49 99 -72 118 -65 20 8 17 24 -6 31 -11 4 -36 29 -54 57 l-34 50 77 77 c51 50 87 98 109 141 83 167 78 369 -14 493 -74 101 -202 152 -379 151 -120 0 -190 -13 -277 -51 l-56 -25 -78 38 c-71 35 -84 39 -173 41 -67 2 -106 -2 -127 -12z m259 -65 c26 -12 47 -26 47 -30 0 -13 -159 -80 -205 -87 -39 -5 -49 -2 -70 17 -33 31 -33 73 1 107 24 24 30 25 102 21 51 -3 93 -12 125 -28z m539 19 c122 -26 221 -104 255 -203 26 -75 24 -212 -5 -298 -32 -93 -146 -249 -171 -234 -4 3 -32 45 -61 93 -208 343 -304 486 -369 547 -17 17 -31 33 -31 38 0 11 63 36 130 53 69 17 182 18 252 4z"/>
<path d="M5232 3508 c-20 -20 -14 -65 10 -82 45 -32 88 -14 88 34 0 48 -66 80 -98 48z"/>
<path d="M1968 3492 c-43 -26 -61 -74 -53 -139 16 -127 132 -268 238 -288 84 -16 116 62 58 142 -39 54 -75 78 -149 100 l-62 18 -6 44 c-9 62 10 95 57 99 30 3 43 -4 82 -40 26 -24 62 -72 81 -108 19 -38 40 -65 48 -64 20 2 62 -117 53 -145 -6 -19 -2 -21 45 -21 33 0 52 5 56 13 2 7 -22 77 -56 155 -61 142 -73 198 -45 208 33 13 89 -50 150 -170 11 -21 27 -41 35 -43 9 -2 31 -28 49 -56 72 -110 177 -161 266 -127 26 10 27 9 107 -156 56 -116 88 -169 104 -176 20 -9 94 -4 94 7 0 2 -13 23 -29 47 -45 68 -136 236 -224 415 -59 121 -81 176 -81 206 -1 32 3 42 17 45 24 5 77 -55 118 -132 43 -81 49 -89 64 -76 14 12 47 -71 84 -207 11 -40 22 -77 26 -83 11 -17 43 -11 59 12 22 32 20 60 -9 102 l-24 36 74 0 c64 0 75 3 75 17 0 9 -25 71 -56 136 -63 133 -78 197 -49 197 26 0 67 -50 110 -132 21 -39 45 -73 54 -75 10 -2 26 -19 36 -36 25 -44 73 -95 116 -122 82 -53 159 -37 159 32 0 76 -72 150 -175 179 l-64 19 -7 44 c-9 62 10 95 57 99 30 3 43 -4 82 -40 26 -24 62 -72 80 -107 33 -64 57 -88 57 -57 0 31 -68 151 -107 188 -43 42 -79 58 -130 58 -78 0 -130 -65 -120 -149 l6 -46 -24 46 c-35 68 -104 138 -142 145 -25 5 -37 1 -57 -19 -42 -42 -36 -99 19 -206 25 -48 45 -92 45 -99 0 -11 -17 -17 -64 -24 -15 -2 -27 16 -62 97 -52 118 -110 207 -133 203 -9 -1 -32 7 -52 20 -20 12 -48 22 -63 22 -37 0 -76 -41 -76 -79 l0 -31 -53 55 c-58 60 -84 67 -136 40 -34 -17 -41 -32 -41 -92 l0 -45 -42 63 c-54 79 -101 106 -153 89 -40 -13 -55 -40 -55 -98 l0 -37 -19 30 c-26 42 -81 92 -114 104 -41 16 -98 13 -129 -7z m664 -79 c19 -21 49 -58 65 -83 43 -64 123 -207 123 -220 0 -5 -12 -10 -27 -10 -53 0 -152 96 -208 201 -66 125 -35 198 47 112z m-536 -154 c48 -23 91 -74 100 -117 14 -68 -42 -40 -121 62 -63 82 -59 94 21 55z m1400 0 c48 -23 91 -74 100 -117 14 -68 -42 -40 -121 62 -63 82 -59 94 21 55z"/>
<path d="M8618 3492 c-43 -26 -61 -74 -53 -139 16 -127 132 -268 238 -288 84 -16 116 62 58 142 -39 54 -75 78 -149 100 l-62 18 -6 44 c-9 62 10 95 57 99 30 3 43 -4 82 -40 26 -24 62 -72 80 -107 33 -64 57 -88 57 -57 0 9 -15 47 -34 84 -37 72 -94 134 -139 151 -41 16 -98 13 -129 -7z m128 -233 c48 -23 91 -74 100 -117 14 -68 -42 -40 -121 62 -63 82 -59 94 21 55z"/>
<path d="M3919 2502 c22 -40 202 -257 319 -386 243 -267 502 -529 815 -826 48 -46 87 -88 87 -93 0 -6 -9 -1 -21 11 -11 12 -24 20 -30 17 -5 -4 -9 -1 -9 5 0 14 -66 80 -74 73 -3 -3 -10 7 -16 22 -7 18 -15 25 -25 21 -9 -3 -15 0 -15 8 0 19 -40 54 -41 35 0 -8 -5 -3 -10 11 -8 19 -12 21 -18 11 -6 -10 -12 -3 -22 23 -7 20 -16 31 -19 26 -3 -5 -12 6 -19 26 -10 27 -16 33 -26 24 -10 -8 -15 -4 -24 20 -6 18 -15 29 -21 25 -5 -3 -10 -1 -10 5 0 7 -25 36 -55 65 -30 29 -55 47 -55 41 0 -6 -12 9 -26 33 -17 28 -29 39 -34 31 -5 -8 -9 -3 -14 13 -3 13 -16 31 -29 40 -33 21 -87 76 -87 88 0 6 -4 7 -10 4 -5 -3 -10 0 -10 8 0 8 -11 22 -24 30 -22 15 -23 15 -34 -19 -5 -19 -6 -32 -1 -28 5 3 9 12 9 20 0 26 26 15 42 -18 20 -42 74 -109 81 -102 3 3 10 -3 16 -14 5 -10 23 -32 38 -49 15 -17 36 -53 46 -82 10 -28 22 -51 27 -51 6 0 10 -7 10 -16 0 -8 7 -22 15 -30 8 -9 15 -21 14 -27 -1 -16 -248 -230 -265 -230 -8 0 -14 -5 -14 -11 0 -6 -22 12 -50 39 -90 88 -53 36 55 -78 58 -61 105 -116 105 -121 -1 -6 -16 7 -35 29 -43 50 -47 34 -4 -18 36 -44 31 -47 -17 -11 -19 15 -36 25 -39 23 -2 -3 25 -26 60 -52 92 -68 171 -192 159 -248 -4 -17 -3 -20 4 -11 7 11 11 8 16 -12 3 -14 11 -26 17 -26 8 0 7 -5 -1 -15 -16 -19 -40 -19 -40 0 0 9 6 12 18 8 16 -5 16 -5 0 12 -9 9 -21 14 -27 11 -17 -11 -13 -54 5 -64 28 -16 56 -1 74 41 14 30 20 36 26 25 10 -18 53 -42 61 -35 2 3 -4 10 -15 16 -10 6 -27 22 -37 37 -9 14 -12 24 -7 20 6 -3 13 -2 17 3 3 6 -3 8 -14 6 -20 -4 -49 20 -37 32 3 3 -6 22 -21 41 -22 29 -24 38 -14 53 6 11 8 19 3 19 -4 0 -12 -8 -18 -18 -9 -14 -8 -22 2 -36 7 -11 11 -23 7 -29 -3 -6 -2 -7 3 -4 5 3 10 -2 10 -11 1 -9 4 -26 9 -37 4 -11 -5 0 -19 24 -14 23 -26 49 -26 56 0 7 -7 18 -15 25 -9 7 -14 18 -12 24 5 11 -8 31 -91 140 -34 45 -41 60 -32 71 9 11 7 12 -7 9 -11 -3 -29 6 -47 25 -33 34 -29 38 14 16 30 -15 30 -15 107 51 43 37 89 77 103 88 38 31 -37 -42 -97 -94 -40 -36 -48 -47 -38 -57 10 -9 25 -1 71 39 53 45 52 44 -9 -15 -63 -60 -68 -68 -62 -96 6 -29 25 -53 25 -33 0 5 59 60 130 122 125 107 130 114 116 134 -8 11 -21 20 -29 20 -9 -1 -13 4 -11 11 9 22 -16 28 -38 8 l-22 -18 20 27 19 27 50 -48 c28 -27 68 -66 91 -88 68 -65 233 -182 264 -187 3 -1 24 -16 47 -33 22 -18 44 -33 48 -33 15 0 101 -67 273 -213 31 -27 113 -85 182 -131 167 -111 174 -115 203 -120 14 -2 34 -9 44 -15 15 -7 20 -7 20 3 0 7 -7 13 -16 12 -8 -1 -17 7 -19 17 -2 10 2 17 11 17 17 0 16 45 -2 78 -6 12 -8 22 -4 22 4 1 -8 10 -27 21 l-35 20 33 -4 c17 -2 32 0 32 5 0 17 -65 68 -87 68 -12 0 -25 5 -29 12 -5 8 2 9 27 4 19 -4 39 -9 46 -10 7 -1 16 -5 19 -9 14 -14 26 -7 14 8 -7 8 -18 15 -25 15 -7 0 -18 6 -25 14 -6 8 -19 12 -27 9 -11 -4 -14 -2 -9 5 5 8 0 12 -13 12 -12 0 -21 5 -21 11 0 11 12 10 55 -6 11 -4 4 4 -15 17 -52 37 -112 48 -200 38 -41 -5 -80 -9 -86 -10 -19 0 -11 -30 8 -30 10 0 18 -7 18 -15 0 -9 9 -15 23 -15 17 0 19 -2 8 -9 -11 -7 -4 -11 25 -17 31 -6 35 -9 19 -14 -19 -7 -19 -7 3 -14 13 -4 21 -10 18 -13 -8 -8 29 -39 66 -54 26 -11 28 -14 13 -19 -16 -6 -13 -11 20 -33 22 -15 36 -27 31 -27 -5 0 -3 -7 4 -15 24 -29 -2 -14 -81 45 -43 34 -79 67 -79 75 0 8 -4 14 -9 13 -4 -2 -18 8 -30 22 -13 14 -19 18 -15 10 5 -8 -6 -4 -23 10 -31 24 -45 48 -20 34 6 -4 3 2 -7 14 -22 26 -45 30 -25 5 8 -9 -3 -4 -23 12 -21 17 -38 34 -38 39 0 5 12 -1 28 -14 57 -50 -189 192 -333 327 -82 78 -171 163 -196 189 -317 333 -504 522 -512 517 -6 -3 -7 -2 -4 4 4 6 -19 37 -49 69 -31 33 -50 50 -43 39 14 -20 13 -20 -9 -1 -23 20 -30 32 -12 21 6 -3 10 -2 10 3 0 12 -57 65 -66 60 -4 -1 -8 5 -10 16 -1 10 -15 31 -30 47 -15 16 -64 77 -108 136 -70 92 -88 110 -134 130 -46 20 -51 21 -43 5z m781 -1125 c0 -2 -17 -19 -37 -38 l-38 -34 34 38 c33 34 41 42 41 34z m569 -277 c33 -30 61 -61 61 -70 0 -9 -6 -6 -16 10 -9 14 -49 51 -90 84 -41 32 -74 62 -74 68 0 10 17 -3 119 -92z m-708 -95 c14 -20 9 -17 -15 10 -19 22 -40 40 -46 40 -5 0 -10 3 -10 8 0 4 0 13 0 20 1 13 36 -26 71 -78z"/>
<path d="M5840 2434 c-99 -61 -333 -238 -551 -416 -240 -195 -241 -196 -234 -208 4 -6 -15 -10 -52 -9 -57 1 -57 2 -16 8 47 8 69 21 34 21 -12 0 -19 4 -16 10 3 6 1 10 -5 10 -6 0 -9 4 -6 9 8 13 -18 21 -72 22 l-47 1 35 10 c37 10 63 28 41 28 -7 0 -10 4 -6 10 3 5 -12 14 -34 21 -22 7 -38 15 -36 19 7 11 -30 20 -130 31 -223 24 -270 21 -249 -12 5 -8 9 -18 9 -24 0 -5 11 -15 25 -22 14 -7 19 -13 10 -13 -9 -1 -5 -6 10 -15 14 -8 20 -14 13 -15 -6 0 1 -13 15 -29 15 -16 33 -36 40 -45 7 -9 25 -16 40 -17 15 0 36 -4 47 -9 16 -7 14 -9 -15 -9 -24 -1 -31 -4 -21 -10 10 -7 11 -9 0 -13 -19 -6 42 -46 87 -57 37 -9 38 -9 9 -11 -16 -1 -24 -4 -17 -7 6 -2 10 -9 6 -14 -7 -11 10 -18 72 -29 46 -7 47 -8 12 -9 -35 -1 -36 -2 -25 -26 7 -14 18 -25 25 -25 6 0 12 -4 12 -9 0 -5 15 -13 33 -17 17 -4 26 -9 19 -11 -8 -3 -10 -9 -3 -16 5 -7 10 -16 10 -22 1 -5 16 -15 34 -21 20 -7 27 -12 17 -16 -8 -2 9 -11 39 -18 71 -17 193 -8 296 20 44 13 86 24 94 26 11 4 11 7 1 20 -16 19 -134 18 -230 -3 -36 -7 -99 -16 -140 -18 l-75 -5 24 20 c25 21 46 27 36 9 -5 -7 -1 -7 11 -1 11 6 69 15 129 22 61 6 121 14 135 17 20 4 22 2 10 -6 -12 -8 -7 -11 23 -11 66 0 37 24 -44 36 -61 10 -67 12 -34 14 22 1 48 1 58 0 22 -2 18 23 -6 32 -11 5 -15 13 -11 19 4 7 3 9 -3 6 -10 -6 -127 12 -121 19 2 1 16 5 32 8 38 7 46 16 14 16 -14 0 -38 7 -54 15 l-28 14 40 -2 c40 -2 46 3 205 149 317 294 609 604 567 604 -8 0 -47 -21 -88 -46z"/>
<path d="M4364 2185 c3 -8 -4 -21 -17 -30 -12 -8 -16 -15 -10 -15 19 0 43 29 37 45 -4 8 -8 15 -11 15 -3 0 -3 -7 1 -15z"/>
<path d="M4465 2152 c-16 -2 -34 -8 -39 -13 -6 -5 -19 -10 -30 -10 -12 -1 -3 -5 19 -8 l40 -7 -45 -11 -45 -11 50 -1 c36 -1 46 -4 35 -11 -8 -5 -26 -10 -39 -10 -13 0 -21 -3 -17 -7 4 -5 58 -9 119 -9 62 -1 146 -4 187 -8 71 -7 74 -6 50 9 l-25 16 28 -6 c40 -8 26 11 -18 25 -19 6 -33 16 -29 21 8 14 -44 30 -116 35 -36 3 -72 6 -80 7 -8 1 -28 1 -45 -1z"/>
<path d="M4270 2026 c0 -8 5 -18 10 -21 8 -5 7 -11 -1 -21 -9 -11 -7 -14 10 -14 27 0 36 22 21 49 -12 24 -40 28 -40 7z"/>
<path d="M4350 1939 c0 -5 -4 -8 -9 -5 -5 3 -11 -1 -15 -9 -3 -8 -16 -16 -28 -16 -18 -1 -19 -2 -5 -6 10 -3 24 1 32 7 8 6 19 9 25 5 6 -3 10 3 10 14 0 12 -2 21 -5 21 -3 0 -5 -5 -5 -11z"/>
<path d="M4075 1526 c3 -17 14 -36 23 -43 15 -11 15 -12 -6 -13 -32 0 -82 -31 -82 -50 0 -32 50 -55 65 -30 10 16 -6 35 -16 19 -8 -12 -11 -11 -19 1 -29 46 40 25 140 -41 75 -51 124 -103 165 -179 19 -36 35 -60 35 -55 0 6 -9 28 -21 49 -27 51 -18 56 20 10 17 -21 33 -36 36 -33 3 3 -38 52 -92 108 -75 80 -93 105 -82 112 19 12 29 11 29 -3 0 -6 2 -9 5 -6 3 3 3 13 -1 22 -5 12 -10 14 -19 6 -10 -8 -21 -3 -46 19 -18 17 -35 28 -39 26 -8 -5 -71 59 -89 90 -11 18 -12 17 -6 -9z m100 -106 c3 0 3 6 -1 13 -4 6 7 -1 25 -18 37 -35 22 -47 -20 -16 -15 11 -33 21 -39 21 -5 0 -10 5 -10 10 0 7 6 7 19 0 11 -5 22 -10 26 -10z"/>
<path d="M4165 1520 c-4 -6 -1 -9 6 -8 6 2 14 -3 17 -11 3 -8 0 -11 -7 -7 -6 4 -11 1 -11 -8 0 -9 7 -16 15 -16 19 0 20 34 1 49 -10 8 -16 9 -21 1z"/>
<path d="M5255 1450 c-27 -4 -96 -9 -153 -9 -66 -1 -101 -5 -97 -11 3 -5 16 -10 28 -10 16 0 18 -3 9 -9 -11 -6 -10 -10 5 -16 47 -19 135 -34 199 -35 60 0 232 24 242 35 2 1 -8 14 -21 29 -20 22 -35 26 -93 30 -38 3 -91 1 -119 -4z"/>
<path d="M5089 1347 c7 -9 22 -17 33 -17 17 0 18 -3 8 -15 -10 -12 -9 -16 6 -21 39 -12 64 -28 64 -39 0 -6 12 -16 28 -23 26 -11 26 -11 -8 -6 -26 4 -31 3 -20 -5 8 -6 25 -11 38 -11 13 0 20 -4 17 -10 -3 -6 4 -10 17 -11 14 0 18 -3 9 -6 -9 -4 2 -13 30 -24 36 -15 40 -18 19 -19 l-25 -1 25 -10 c14 -6 28 -17 33 -25 5 -9 27 -15 65 -16 50 -1 52 -2 14 -5 -30 -3 -40 -8 -35 -16 4 -7 8 -16 8 -22 0 -5 12 -11 28 -13 30 -4 36 -18 10 -25 -30 -8 141 -8 193 0 l49 7 -35 8 c-23 4 -11 6 33 3 60 -4 67 -2 57 10 -7 8 -19 15 -28 15 -8 0 -12 3 -9 7 11 10 -13 32 -29 26 -8 -3 -14 0 -14 7 0 10 -22 11 -92 8 -89 -6 -90 -5 -52 9 21 8 55 19 74 25 53 15 56 25 14 38 -33 11 -36 14 -19 20 13 5 -3 10 -50 14 -97 10 -99 12 -22 21 37 4 67 11 67 15 0 11 -27 20 -58 20 -15 0 -34 5 -42 11 -11 8 -1 9 40 5 51 -5 53 -4 30 9 -14 8 -34 15 -45 16 -14 1 -11 3 9 8 l28 6 -19 24 -19 24 -119 -13 c-112 -12 -260 -9 -302 7 -16 6 -16 5 -4 -10z"/>
<path d="M4300 1140 c0 -8 25 -20 41 -20 20 0 7 18 -16 22 -14 3 -25 2 -25 -2z"/>
<path d="M4220 1052 c0 -5 22 -15 50 -22 27 -7 48 -15 45 -20 -2 -4 7 -5 20 -2 40 7 29 18 -32 32 -32 7 -64 15 -70 17 -7 3 -13 1 -13 -5z"/>
<path d="M4180 1010 c0 -5 9 -10 21 -10 11 0 17 -4 14 -10 -4 -7 3 -9 22 -5 21 5 24 4 13 -4 -9 -6 -10 -11 -3 -11 6 0 20 -3 30 -6 15 -5 16 -4 3 6 -13 9 -12 11 5 9 45 -3 37 3 -25 21 -77 23 -80 23 -80 10z"/>
<path d="M5480 976 c14 -8 28 -12 33 -9 11 7 7 9 -28 17 l-30 6 25 -14z"/>
<path d="M4142 970 c2 -8 28 -22 58 -32 42 -14 55 -15 62 -6 9 15 -26 32 -86 43 -30 6 -38 5 -34 -5z"/>
<path d="M5760 965 c30 -7 57 -12 58 -10 6 5 -71 25 -93 24 -11 0 5 -7 35 -14z"/>
<path d="M4110 941 c0 -6 3 -11 8 -11 4 0 28 -7 55 -15 26 -8 47 -10 47 -5 0 5 -18 14 -41 20 -22 6 -47 14 -55 17 -8 3 -14 0 -14 -6z"/>
<path d="M4074 902 c3 -5 3 -12 -1 -15 -5 -2 -2 -2 6 0 8 2 23 1 34 -3 16 -5 17 -8 6 -15 -12 -7 -11 -9 1 -8 8 1 26 4 40 9 l25 7 -30 12 c-46 19 -89 26 -81 13z"/>
<path d="M4030 872 c0 -6 87 -42 103 -42 3 0 7 7 10 14 4 10 1 13 -7 10 -8 -3 -30 2 -51 10 -42 18 -55 20 -55 8z"/>
<path d="M4035 819 c22 -10 47 -18 55 -18 19 1 -60 38 -80 37 -8 0 3 -8 25 -19z"/>
<path d="M3990 790 c19 -11 44 -19 55 -19 12 0 2 8 -24 19 -55 25 -77 25 -31 0z"/>
<path d="M3810 770 c0 -17 141 -171 151 -164 5 3 -14 33 -43 66 -29 33 -61 71 -71 84 -19 25 -37 32 -37 14z"/>
<path d="M3930 776 c0 -6 74 -46 85 -46 18 0 -1 18 -32 30 -21 8 -41 16 -45 18 -5 2 -8 1 -8 -2z"/>
<path d="M3958 708 c12 -12 25 -19 28 -15 4 4 -1 14 -12 22 -29 22 -41 18 -16 -7z"/>
<path d="M3797 714 c-6 -11 78 -114 94 -114 19 0 8 20 -39 71 -27 29 -51 48 -55 43z"/>
<path d="M3796 652 c-9 -14 3 -39 21 -47 29 -10 34 11 9 34 -14 13 -27 18 -30 13z"/>
<path d="M8928 570 c-25 -26 -40 -53 -44 -80 -4 -22 -10 -40 -15 -40 -5 0 -9 -40 -9 -89 l0 -88 -2947 0 c-3355 0 -5193 -5 -5193 -14 0 -4 6 -11 13 -16 13 -10 694 -8 790 2 39 5 62 3 72 -5 11 -9 102 -12 363 -11 191 1 1456 0 2812 -3 1356 -3 2839 -3 3295 2 l830 7 3 80 c2 44 7 84 12 89 6 6 10 20 10 33 0 12 11 46 24 75 49 108 44 123 -16 58z"/>
</g>
<g id="layer105" fill="#f5ab76" stroke="none">
<path d="M700 5140 c0 -67 4 -110 10 -110 6 0 10 40 10 100 l0 100 3073 1 c1689 1 3525 0 4080 -1 725 -1 1007 1 1007 9 0 8 -1130 11 -4090 11 l-4090 0 0 -110z"/>
</g>
<g id="layer106" fill="#b6b3b5" stroke="none">
<path d="M700 5140 c0 -67 4 -110 10 -110 6 0 10 40 10 100 l0 100 1878 1 c1032 0 2868 0 4080 0 1440 -1 2202 3 2202 9 0 7 -1411 10 -4090 10 l-4090 0 0 -110z"/>
<path d="M8881 5148 c0 -42 4 -80 9 -83 12 -7 12 84 0 130 -6 22 -8 10 -9 -47z"/>
<path d="M830 5104 c-6 -14 -10 -47 -10 -74 0 -27 -4 -52 -10 -55 -5 -3 -10 -15 -10 -26 0 -10 -4 -19 -10 -19 -5 0 -10 -11 -10 -24 0 -23 -98 -136 -118 -136 -6 0 -12 -3 -14 -7 -1 -5 -28 -19 -58 -32 -30 -13 -63 -27 -72 -32 -10 -5 -40 -9 -67 -9 -42 0 -49 -3 -55 -22 -8 -30 -8 -3806 0 -3835 5 -19 13 -23 47 -23 64 0 210 -57 221 -86 3 -8 10 -14 16 -14 14 0 60 -46 60 -60 0 -6 9 -20 20 -32 11 -12 20 -30 20 -40 0 -10 5 -18 10 -18 6 0 10 -16 10 -35 0 -19 4 -35 9 -35 5 0 11 -23 13 -51 3 -27 9 -54 14 -59 8 -8 2884 -12 7619 -10 l320 0 3 72 c1 40 7 77 12 82 6 6 10 18 10 28 0 10 5 18 10 18 6 0 10 7 10 15 0 14 16 37 47 70 7 8 13 16 13 20 0 10 22 29 53 44 15 8 27 18 27 23 0 4 9 8 20 8 11 0 20 5 20 10 0 6 9 10 19 10 11 0 23 4 26 10 3 5 17 10 30 10 13 0 27 5 30 10 3 6 26 10 50 10 28 0 45 5 48 14 6 15 8 393 10 2487 2 1302 2 1337 -17 1358 -15 16 -31 21 -72 21 -29 0 -56 5 -59 10 -3 6 -16 10 -28 10 -12 0 -33 9 -47 20 -14 11 -29 20 -33 20 -14 0 -117 112 -117 126 0 8 -4 14 -10 14 -5 0 -10 9 -10 19 0 11 -4 23 -10 26 -5 3 -10 17 -10 31 0 13 -4 24 -10 24 -5 0 -10 23 -10 51 0 28 -5 59 -10 70 -11 19 -66 19 -3971 19 l-3959 0 -10 -26z m7860 -124 c0 -22 5 -40 10 -40 6 0 10 -13 10 -30 0 -16 3 -30 8 -30 4 0 18 -21 32 -47 44 -86 191 -213 246 -213 8 0 14 -4 14 -10 0 -5 11 -10 25 -10 13 0 36 -5 50 -12 l25 -11 0 -1816 c0 -999 -3 -1826 -6 -1838 -4 -16 -14 -23 -30 -23 -12 0 -26 -5 -29 -10 -3 -6 -17 -10 -31 -10 -13 0 -24 -4 -24 -10 0 -5 -6 -10 -13 -10 -20 0 -73 -28 -87 -45 -7 -8 -17 -15 -21 -15 -18 0 -98 -88 -120 -132 -12 -23 -27 -46 -33 -50 -6 -4 -8 -8 -5 -8 4 0 -5 -29 -20 -65 l-26 -65 -3870 0 -3870 0 -20 62 c-22 67 -49 120 -77 152 -10 11 -18 24 -18 28 0 11 -67 78 -77 78 -4 0 -22 13 -38 29 -17 15 -49 34 -70 42 -22 7 -44 17 -49 21 -6 4 -22 8 -38 8 -16 0 -31 7 -37 19 -7 12 -11 638 -11 1836 0 1724 1 1818 17 1831 10 7 26 14 36 14 16 0 54 17 67 30 3 3 16 7 30 9 14 1 27 6 30 10 3 4 21 18 40 31 48 32 120 102 120 116 0 6 7 17 15 24 17 14 48 77 59 120 4 14 12 37 18 53 l10 27 3879 0 3879 0 0 -40z"/>
<path d="M7914 3815 c4 -12 -4 -15 -47 -13 -29 1 -1671 2 -3649 0 -2391 -1 -3598 -5 -3598 -12 0 -7 1226 -10 3658 -10 l3657 0 14 -22 c51 -81 217 -436 208 -444 -7 -7 -26 15 -45 52 -32 62 -102 133 -139 140 -25 5 -37 1 -57 -19 -42 -42 -36 -103 19 -206 25 -45 45 -89 45 -97 0 -13 -16 -19 -64 -26 -15 -2 -27 16 -62 97 -55 125 -110 208 -135 202 -10 -3 -24 2 -30 10 -16 18 -63 43 -84 43 -29 0 -65 -46 -65 -84 l0 -36 -52 54 c-61 63 -96 76 -134 52 -33 -22 -47 -61 -41 -116 4 -37 3 -42 -7 -26 -68 114 -115 156 -172 156 -44 0 -74 -38 -74 -94 0 -29 13 -65 45 -125 25 -46 43 -86 41 -88 -24 -24 -144 95 -210 208 -27 46 -54 87 -60 91 -15 11 -76 10 -76 -1 0 -20 341 -689 364 -714 19 -21 34 -27 66 -27 22 0 40 5 40 11 0 6 -13 29 -29 53 -35 51 -155 263 -206 366 l-37 75 38 -36 c78 -73 219 -150 245 -133 5 3 -13 47 -41 98 -56 105 -100 214 -100 251 0 68 80 -2 145 -127 24 -45 41 -68 50 -64 9 3 24 -12 39 -39 56 -95 178 -166 261 -151 32 6 85 46 85 64 0 18 -33 23 -42 8 -17 -30 -45 -37 -80 -23 -105 44 -267 319 -202 344 39 15 100 -51 185 -201 48 -86 72 -104 118 -90 l30 9 -36 60 c-66 112 -96 225 -58 225 19 0 83 -81 120 -153 22 -42 35 -57 47 -53 18 4 49 -71 87 -211 11 -40 22 -77 26 -83 11 -17 43 -11 59 12 22 32 20 60 -9 102 l-24 36 74 0 c64 0 75 3 75 17 0 9 -25 71 -56 136 -31 66 -59 137 -61 158 -5 35 -3 39 16 39 24 0 68 -55 112 -142 16 -32 37 -62 48 -67 26 -14 47 -96 34 -132 -9 -24 -8 -28 11 -33 11 -3 36 -6 55 -6 l33 0 -4 68 -3 68 36 -46 c81 -103 141 -126 190 -74 73 77 -29 317 -164 385 -41 21 -106 29 -148 17 -25 -7 -27 -4 -78 125 -29 72 -55 138 -58 145 -4 9 81 12 407 12 325 0 411 3 407 13 -3 9 -97 12 -421 13 -300 1 -420 4 -428 12 -7 7 -34 12 -61 12 -40 0 -48 -3 -43 -15z m355 -373 c109 -73 217 -264 178 -316 -13 -17 -15 -17 -45 -2 -45 23 -234 321 -215 339 13 14 41 6 82 -21z"/>
<path d="M4306 3608 c-66 -12 -183 -67 -228 -107 -21 -18 -50 -58 -65 -89 -24 -48 -28 -70 -28 -137 0 -114 19 -170 77 -227 31 -32 55 -48 73 -48 38 0 31 30 -14 63 -79 55 -106 177 -67 294 21 64 92 133 174 170 108 49 279 42 407 -17 123 -56 199 -138 303 -327 77 -138 214 -435 205 -444 -10 -10 -156 -46 -213 -53 -121 -15 -156 -15 -217 -6 -86 14 -164 53 -214 107 -51 55 -69 98 -69 163 0 43 5 56 28 80 35 34 103 48 155 31 42 -14 117 -92 117 -122 0 -14 5 -19 18 -17 25 6 18 55 -15 102 -85 121 -271 116 -347 -8 -81 -131 4 -322 173 -387 69 -26 223 -37 302 -20 30 6 113 30 186 53 l132 41 41 -36 c44 -41 74 -47 89 -18 12 21 5 31 -19 31 -20 0 -55 36 -43 43 26 16 190 50 265 55 l87 5 11 -27 c12 -33 34 -30 38 5 10 81 -168 89 -375 18 -31 -10 -60 -19 -64 -19 -16 0 -89 159 -134 292 -100 293 -195 431 -346 503 -122 58 -290 79 -423 53z"/>
<path d="M6065 3610 c-114 -16 -207 -61 -268 -129 -52 -58 -70 -104 -71 -187 0 -63 4 -80 37 -147 26 -52 54 -90 93 -126 87 -80 154 -86 71 -7 -82 79 -138 230 -121 330 23 142 135 215 339 223 174 8 319 -38 426 -135 57 -51 109 -148 109 -204 0 -97 -55 -151 -235 -231 -205 -91 -255 -138 -255 -237 0 -54 19 -88 80 -143 79 -71 193 -107 340 -107 97 0 172 22 218 65 33 30 37 39 37 83 0 40 -5 56 -25 77 -27 30 -78 55 -111 55 -29 0 -19 -22 17 -33 47 -16 64 -36 64 -80 0 -32 -6 -46 -34 -72 -36 -33 -98 -55 -159 -55 -52 0 -186 37 -234 65 -80 48 -114 130 -76 185 30 44 55 59 209 134 88 43 169 89 194 112 48 43 79 103 80 150 1 151 -209 345 -430 397 -84 20 -219 28 -295 17z"/>
<path d="M704 3535 c-81 -37 -109 -124 -59 -184 59 -70 163 -68 313 4 l102 48 26 -24 c41 -38 126 -172 214 -338 86 -162 133 -241 183 -304 34 -44 34 -45 -50 -77 -196 -74 -427 -33 -569 102 -117 111 -127 240 -22 283 85 34 177 -7 212 -95 16 -41 32 -51 42 -25 10 24 -14 80 -49 113 -104 101 -269 75 -328 -53 -92 -200 169 -406 516 -407 103 0 220 23 286 58 29 15 31 14 77 -27 56 -49 99 -72 118 -65 20 8 17 24 -6 31 -11 4 -36 29 -54 57 l-34 50 77 77 c51 50 87 98 109 141 83 167 78 369 -14 493 -74 101 -202 152 -379 151 -120 0 -190 -13 -277 -51 l-56 -25 -78 38 c-71 35 -84 39 -173 41 -67 2 -106 -2 -127 -12z m259 -65 c26 -12 47 -26 47 -30 0 -13 -159 -80 -205 -87 -39 -5 -49 -2 -70 17 -33 31 -33 73 1 107 24 24 30 25 102 21 51 -3 93 -12 125 -28z m539 19 c73 -15 163 -65 203 -112 50 -58 70 -125 70 -232 -1 -114 -28 -197 -95 -293 -58 -82 -89 -108 -106 -89 -6 6 -62 95 -124 197 -147 241 -239 376 -289 425 -23 21 -41 43 -41 47 0 11 64 37 130 53 69 17 182 18 252 4z"/>
<path d="M5232 3508 c-28 -28 3 -98 44 -98 51 0 73 59 36 93 -22 20 -63 22 -80 5z"/>
<path d="M1968 3492 c-65 -39 -73 -134 -21 -241 35 -74 115 -154 176 -176 45 -17 50 -17 83 -2 30 15 34 21 34 55 0 28 -9 51 -30 81 -37 50 -76 76 -152 99 -57 17 -58 17 -64 61 -9 62 10 95 57 99 30 3 43 -4 82 -40 26 -24 62 -72 81 -108 19 -38 40 -65 48 -64 20 2 62 -117 53 -145 -6 -19 -2 -21 45 -21 33 0 52 5 56 13 2 7 -23 77 -56 156 -42 97 -60 152 -58 174 7 74 71 30 142 -97 27 -47 53 -86 60 -86 6 0 23 -20 39 -44 72 -114 183 -170 272 -136 26 10 27 8 107 -156 56 -114 89 -169 104 -176 20 -9 94 -4 94 7 0 2 -13 23 -29 47 -45 68 -136 236 -224 415 -59 121 -81 176 -81 206 -1 32 3 42 17 45 24 5 77 -55 118 -132 43 -81 49 -89 64 -76 14 12 47 -71 84 -207 11 -40 22 -77 26 -83 11 -17 43 -11 59 12 22 32 20 60 -9 102 l-24 36 74 0 c64 0 75 3 75 17 0 9 -25 71 -56 136 -31 66 -59 137 -61 158 -5 35 -3 39 16 39 24 0 68 -55 113 -144 16 -32 37 -60 47 -63 9 -2 29 -24 44 -48 38 -60 95 -109 151 -130 44 -17 49 -17 82 -2 29 14 34 22 34 52 0 46 -20 84 -64 122 -32 29 -130 73 -161 73 -9 0 -16 17 -21 47 -9 64 9 97 57 101 30 3 43 -4 82 -40 26 -24 62 -72 80 -107 33 -64 57 -88 57 -57 0 28 -59 135 -98 178 -42 47 -85 68 -138 68 -79 0 -131 -64 -121 -149 l6 -46 -24 46 c-35 68 -104 138 -142 145 -25 5 -37 1 -57 -19 -42 -42 -36 -103 19 -206 25 -45 45 -89 45 -97 0 -13 -16 -19 -64 -26 -15 -2 -27 16 -62 97 -52 118 -110 207 -133 203 -9 -1 -32 7 -52 20 -20 12 -48 22 -63 22 -37 0 -76 -41 -76 -79 l0 -31 -53 55 c-58 60 -84 67 -136 40 -34 -17 -41 -32 -41 -92 l0 -45 -42 63 c-54 79 -101 106 -153 89 -40 -13 -55 -40 -55 -97 l0 -36 -29 39 c-56 77 -101 104 -169 104 -20 0 -49 -8 -64 -18z m664 -79 c19 -21 49 -58 65 -83 43 -64 123 -207 123 -220 0 -5 -12 -10 -27 -10 -53 0 -152 96 -208 201 -66 125 -35 198 47 112z m-536 -154 c48 -23 91 -74 100 -117 14 -68 -48 -37 -122 61 -62 83 -57 95 22 56z m1400 0 c48 -23 91 -74 100 -117 14 -68 -48 -37 -122 61 -62 83 -57 95 22 56z"/>
<path d="M3928 2493 c20 -36 205 -260 298 -360 52 -56 111 -121 130 -145 98 -118 662 -670 879 -858 105 -91 164 -135 103 -76 -21 20 -35 36 -31 36 4 0 1 6 -5 13 -7 6 -17 12 -21 12 -11 0 -359 341 -501 490 -58 61 -94 97 -80 80 14 -17 -13 10 -60 59 -47 49 -85 92 -85 96 0 7 -219 243 -315 340 -36 36 -56 58 -45 50 25 -19 -39 57 -71 85 -13 11 -41 49 -62 85 -37 62 -69 89 -120 105 -21 6 -22 5 -14 -12z m432 -450 c0 -8 -9 0 -50 45 l-45 47 48 -45 c26 -24 47 -45 47 -47z m75 -83 c21 -22 37 -40 34 -40 -3 0 -23 18 -44 40 -21 22 -37 40 -34 40 3 0 23 -18 44 -40z"/>
<path d="M5872 2450 c-74 -40 -194 -125 -377 -268 -244 -190 -446 -362 -440 -372 4 -6 -21 -9 -62 -8 -57 1 -61 2 -23 6 l45 5 -40 13 c-28 10 -31 13 -12 10 15 -2 30 1 33 5 3 5 0 9 -6 9 -6 0 -9 4 -5 9 9 16 -33 23 -113 17 -68 -4 -71 -4 -26 4 28 5 64 15 80 21 l29 11 -27 10 c-16 5 -28 14 -28 19 0 4 -7 5 -17 2 -11 -4 -14 -3 -9 5 4 8 0 12 -11 12 -14 0 -15 2 -5 9 21 13 -10 21 -123 32 -55 6 -121 13 -146 16 -28 3 -56 0 -70 -7 -21 -12 -21 -14 -6 -25 9 -6 14 -14 11 -18 -3 -3 4 -8 16 -12 13 -4 19 -12 16 -21 -3 -7 5 -20 17 -29 12 -8 17 -15 12 -16 -6 0 4 -7 20 -14 17 -8 24 -14 17 -15 -10 0 -10 -5 2 -22 13 -19 32 -25 99 -34 l82 -12 -63 -1 c-36 0 -61 -5 -57 -10 3 -5 -3 -12 -12 -14 -17 -4 -17 -5 0 -6 10 0 15 -5 12 -11 -3 -5 1 -10 9 -10 9 0 16 -4 16 -9 0 -5 26 -13 58 -19 53 -9 54 -10 17 -11 -33 -1 -37 -4 -22 -12 9 -6 15 -14 12 -19 -5 -8 35 -16 120 -23 30 -3 26 -4 -17 -5 -68 -2 -76 -17 -15 -28 42 -8 42 -8 12 -15 -16 -3 -22 -7 -12 -8 10 0 15 -5 12 -11 -3 -5 7 -13 22 -16 25 -7 25 -8 8 -15 -16 -6 -12 -8 15 -9 21 -1 29 -4 20 -8 -28 -13 -20 -31 16 -38 21 -4 31 -10 24 -14 -23 -14 80 -33 153 -27 73 5 188 33 197 48 3 4 12 7 20 7 8 -1 23 0 33 0 17 2 17 3 2 18 -14 14 -31 16 -113 10 -53 -3 -124 -13 -157 -21 -33 -8 -84 -15 -114 -15 -53 0 -54 0 -36 20 14 15 31 20 74 20 31 0 83 4 116 9 133 20 150 22 135 11 -11 -7 -5 -10 25 -10 37 0 38 1 22 17 -14 14 -36 18 -115 18 -90 0 -88 10 3 15 31 1 36 3 20 9 -11 5 -23 7 -26 5 -3 -2 -6 3 -6 11 0 18 14 20 19 3 3 -7 12 -9 23 -4 30 11 3 28 -67 42 -35 6 -51 12 -36 13 31 1 49 21 19 21 -10 0 -21 6 -24 13 -2 8 -28 12 -83 11 -50 0 -68 2 -47 6 17 4 44 17 59 29 17 13 34 19 47 15 13 -4 29 3 50 23 l32 28 -29 -32 c-22 -24 -38 -33 -62 -33 -55 0 -46 -16 17 -29 l60 -12 187 174 c306 285 569 563 551 582 -3 2 -28 -9 -57 -25z"/>
<path d="M4445 2141 c18 -8 17 -9 -10 -13 -30 -5 -30 -5 5 -8 34 -2 34 -3 -15 -15 l-50 -13 70 -2 70 -2 -45 -13 c-45 -12 -45 -12 65 -18 61 -4 139 -9 175 -12 62 -5 64 -5 40 10 l-25 16 25 -5 c24 -5 24 -5 5 10 -11 8 -30 17 -43 21 -14 3 -21 11 -18 19 3 8 2 13 -2 13 -4 -1 -9 0 -12 1 -37 14 -268 25 -235 11z"/>
<path d="M4270 2030 c0 -6 7 -13 15 -17 14 -5 14 -8 -1 -24 -16 -18 -16 -19 5 -19 27 0 36 22 21 49 -11 22 -40 29 -40 11z"/>
<path d="M4400 1893 c0 -25 77 -121 93 -115 4 1 7 -3 7 -8 0 -6 12 -24 28 -40 48 -52 50 -57 62 -98 6 -23 17 -48 25 -56 8 -8 15 -19 15 -25 0 -6 4 -11 9 -11 5 0 11 -9 14 -21 3 -12 10 -18 15 -15 5 3 12 -3 15 -15 4 -15 2 -18 -7 -10 -10 8 -46 -18 -145 -104 -73 -64 -136 -113 -142 -110 -5 4 -9 1 -9 -6 0 -10 -3 -10 -12 -1 -20 20 -32 13 -13 -8 11 -12 13 -20 6 -20 -6 0 1 -16 16 -35 15 -19 32 -35 37 -35 6 0 -3 13 -19 30 -16 16 -26 32 -23 35 3 3 31 -24 63 -60 32 -36 55 -68 52 -71 -3 -3 -17 11 -32 31 -15 19 -30 33 -33 30 -3 -3 9 -23 27 -45 17 -22 27 -40 22 -40 -5 0 -13 4 -16 10 -3 5 -16 15 -28 20 -12 6 -6 -2 13 -17 98 -77 148 -148 185 -261 10 -29 21 -52 26 -52 17 0 9 47 -16 94 -14 26 -25 52 -25 57 0 6 -9 22 -20 36 -11 14 -17 30 -13 36 3 5 1 7 -5 3 -5 -3 -25 12 -42 34 -17 22 -36 38 -41 35 -5 -4 -6 2 -2 11 5 14 13 9 46 -27 41 -46 30 -29 -41 65 -34 45 -41 60 -32 71 9 11 7 12 -7 9 -11 -3 -29 6 -47 25 -33 34 -29 38 14 16 l29 -15 123 106 c68 58 125 112 126 120 3 11 20 -2 54 -40 27 -31 54 -54 58 -51 5 3 11 -3 15 -12 5 -18 187 -168 202 -168 4 0 22 -10 40 -23 17 -12 35 -22 40 -22 6 0 18 -9 28 -20 10 -11 22 -20 27 -20 5 0 16 -7 25 -15 8 -8 19 -13 24 -10 5 4 9 2 9 -3 0 -5 28 -29 62 -53 34 -24 90 -68 124 -99 143 -130 411 -309 437 -293 6 3 7 1 3 -5 -4 -7 -1 -12 8 -12 8 0 22 -3 31 -6 15 -6 15 -4 6 15 -6 11 -16 30 -21 41 -6 12 -6 20 -1 20 10 0 9 19 -2 37 -4 6 -4 18 -1 26 4 10 -4 21 -23 31 -26 14 -26 15 -5 16 12 0 22 5 22 10 0 6 5 10 10 10 6 0 10 -6 10 -14 0 -8 4 -17 9 -20 5 -4 7 3 4 15 -3 11 -16 26 -29 31 -13 6 -24 14 -24 17 0 3 -12 7 -26 8 -39 2 -53 20 -23 32 17 7 19 10 7 10 -10 1 -18 5 -18 10 0 5 -10 13 -22 17 -22 7 -21 8 7 14 l30 6 -39 17 c-61 27 -240 19 -229 -9 3 -8 13 -14 23 -14 10 0 26 -3 36 -7 16 -6 16 -7 -2 -14 -16 -6 -14 -8 11 -9 29 -2 30 -2 5 -10 -22 -7 -21 -8 20 -15 34 -6 40 -10 25 -16 -18 -6 -19 -7 -3 -14 10 -4 15 -11 12 -16 -3 -5 -1 -9 5 -9 5 0 16 -6 23 -14 8 -7 34 -23 59 -35 33 -17 37 -21 17 -18 -39 6 -30 -14 17 -40 29 -16 35 -22 20 -23 -17 -1 -16 -3 8 -16 37 -20 34 -25 -5 -12 -18 6 -54 29 -79 50 -25 21 -48 38 -52 38 -3 0 -25 18 -47 40 -22 22 -45 40 -50 40 -6 0 -10 5 -10 11 0 5 6 7 13 3 7 -4 9 -3 4 2 -5 5 -12 9 -15 9 -15 0 -71 47 -69 57 1 6 -7 12 -18 14 -11 1 -30 15 -43 29 -12 14 -27 23 -32 20 -6 -3 -10 0 -10 8 0 12 -43 50 -52 46 -2 0 -31 27 -66 60 -35 34 -68 61 -74 61 -6 0 -19 11 -30 26 -11 14 -23 23 -25 20 -3 -3 -14 5 -24 17 -13 16 -18 18 -19 7 0 -9 -6 -5 -17 10 -26 39 -65 80 -73 75 -4 -2 -13 8 -20 23 -12 25 -13 26 -21 7 -5 -13 -8 -15 -8 -5 -1 8 -10 30 -22 49 -15 25 -23 31 -29 21 -6 -9 -10 -6 -15 11 -8 23 -8 23 -15 4 -6 -17 -9 -14 -20 19 -7 21 -15 34 -19 27 -4 -6 -13 4 -20 25 -10 27 -16 33 -26 24 -10 -9 -16 -3 -25 26 -8 22 -15 32 -20 25 -4 -8 -12 -1 -20 18 -7 17 -16 31 -21 31 -4 0 -24 16 -43 36 -23 24 -36 31 -39 22 -4 -9 -6 -8 -6 3 -1 21 -40 71 -51 64 -4 -3 -13 9 -19 27 -6 17 -14 29 -17 26 -3 -3 -26 15 -52 41 -26 25 -50 45 -54 43 -5 -1 -8 4 -8 12 0 8 -4 18 -10 21 -5 3 -10 3 -10 -2z"/>
<path d="M4075 1526 c3 -17 14 -36 23 -43 15 -11 15 -12 -6 -13 -32 0 -82 -31 -82 -50 0 -21 20 -40 41 -40 23 0 34 19 20 33 -8 8 -11 6 -11 -7 0 -15 -3 -16 -15 -6 -21 17 -19 27 9 46 23 14 28 14 72 -5 26 -12 49 -19 52 -16 3 3 19 -7 36 -22 28 -26 29 -26 11 -3 -22 27 -36 38 -48 38 -13 0 -67 53 -89 87 l-20 30 7 -29z"/>
<path d="M5265 1450 c-22 -5 -80 -9 -130 -10 -49 0 -97 -5 -105 -10 -12 -8 -11 -10 8 -10 12 0 22 -4 22 -10 0 -5 12 -10 28 -11 23 0 24 -2 8 -8 -14 -5 3 -11 57 -21 80 -13 160 -10 275 11 52 9 61 14 51 25 -6 8 -23 14 -38 14 -14 0 -33 5 -41 11 -11 8 -5 9 25 4 26 -4 36 -3 30 3 -14 14 -143 22 -190 12z"/>
<path d="M4100 1416 c123 -61 190 -123 244 -225 20 -36 36 -61 36 -56 0 6 -9 27 -20 48 -11 21 -18 43 -14 49 7 11 -124 148 -142 148 -6 0 -17 7 -24 15 -18 22 -70 45 -99 44 -23 0 -20 -3 19 -23z"/>
<path d="M4640 1373 c-144 -125 -158 -138 -146 -149 9 -8 41 14 122 84 60 52 109 100 109 105 0 24 -24 13 -85 -40z"/>
<path d="M4615 1294 c-66 -58 -121 -111 -123 -118 -2 -7 2 -26 8 -42 9 -24 13 -26 20 -13 5 8 65 64 134 124 117 101 125 110 113 129 -8 11 -18 21 -23 23 -5 2 -63 -44 -129 -103z"/>
<path d="M5395 1348 c-33 -5 -108 -7 -168 -6 -59 2 -107 0 -107 -3 0 -3 15 -11 33 -17 25 -8 27 -10 10 -11 -31 -1 -29 -21 1 -21 14 0 28 -4 31 -10 3 -5 18 -10 33 -11 24 0 25 -1 7 -9 -18 -7 -19 -8 -2 -15 9 -4 17 -11 17 -15 0 -5 -8 -10 -17 -12 -10 -3 6 -8 36 -12 52 -8 54 -9 30 -21 l-24 -13 30 -7 c56 -12 62 -16 40 -25 -17 -8 -16 -9 8 -9 21 -1 27 -5 25 -18 -2 -15 6 -19 48 -21 47 -3 67 2 170 41 35 14 34 37 -2 37 -30 0 -32 20 -1 21 12 1 -14 7 -58 14 l-80 11 63 8 c70 9 80 21 25 30 -96 17 -101 20 -38 26 l60 6 -45 11 c-42 10 -43 11 -13 12 23 1 31 5 27 15 -3 9 -13 12 -27 8 -20 -5 -20 -4 -8 11 12 15 10 17 -15 16 -16 -1 -56 -6 -89 -11z"/>
<path d="M4300 1313 c0 -5 9 -18 20 -28 11 -10 20 -14 20 -8 0 5 -9 18 -20 28 -11 10 -20 14 -20 8z"/>
<path d="M4310 1130 c20 -13 43 -13 35 0 -3 6 -16 10 -28 10 -18 0 -19 -2 -7 -10z"/>
<path d="M5480 1086 c-56 -9 -70 -14 -55 -20 13 -5 16 -10 7 -13 -21 -8 -3 -23 28 -23 36 0 49 -17 18 -23 -39 -7 84 -7 142 0 50 6 52 8 25 15 -19 4 -4 6 43 4 39 -2 72 -1 72 1 0 9 -71 33 -80 28 -6 -4 -10 -2 -10 4 0 5 8 12 18 14 9 3 3 5 -15 6 -17 0 -35 6 -38 11 -7 12 -55 11 -155 -4z"/>
<path d="M4220 1050 c0 -9 130 -43 138 -36 6 7 -5 11 -80 30 -32 8 -58 11 -58 6z"/>
<path d="M4185 1013 c14 -14 125 -43 125 -33 0 4 -21 13 -47 19 -27 7 -57 14 -68 18 -13 3 -16 2 -10 -4z"/>
<path d="M4145 970 c3 -5 21 -12 40 -16 19 -3 35 -11 35 -16 0 -6 6 -8 14 -5 8 3 16 1 19 -6 2 -6 6 -4 10 5 5 13 -5 20 -48 32 -61 18 -79 20 -70 6z"/>
<path d="M4625 960 c-4 -12 -2 -27 5 -34 6 -8 10 -18 8 -22 -1 -5 6 -30 16 -56 21 -54 16 -94 -14 -103 -23 -7 -43 2 -34 16 3 5 10 7 15 4 5 -4 9 -2 9 4 0 16 -21 24 -32 13 -6 -6 -8 -22 -4 -36 5 -19 13 -26 30 -26 26 0 66 42 66 68 0 12 5 11 20 -6 12 -12 26 -22 32 -22 6 0 1 11 -11 24 -14 15 -20 30 -16 37 5 7 4 10 -2 6 -13 -8 -42 24 -48 53 -2 13 -12 31 -21 41 -10 11 -13 25 -9 38 3 12 4 21 1 21 -2 0 -8 -9 -11 -20z"/>
<path d="M4110 943 c0 -5 20 -14 45 -21 59 -16 80 -14 35 2 -64 24 -80 27 -80 19z"/>
<path d="M4073 903 c8 -13 95 -38 104 -30 7 7 -37 25 -81 34 -19 4 -27 2 -23 -4z"/>
<path d="M4030 874 c0 -3 15 -11 33 -18 61 -25 74 -27 80 -12 4 9 1 13 -6 10 -7 -2 -32 2 -56 11 -49 17 -51 17 -51 9z"/>
<path d="M4035 820 c22 -10 47 -19 55 -19 8 0 -5 8 -29 19 -24 11 -48 20 -55 19 -6 0 7 -9 29 -19z"/>
<path d="M3970 805 c0 -9 71 -37 78 -31 3 3 3 6 0 6 -3 0 -22 7 -42 15 -20 8 -36 13 -36 10z"/>
<path d="M3810 771 c0 -17 144 -175 148 -162 2 6 -26 46 -64 89 -68 78 -84 92 -84 73z"/>
<path d="M3930 775 c0 -8 82 -47 87 -41 3 2 -13 14 -36 25 -41 22 -51 25 -51 16z"/>
<path d="M3871 765 c0 -5 20 -32 44 -60 25 -27 45 -45 45 -40 0 6 -20 33 -45 60 -24 28 -44 46 -44 40z"/>
<path d="M3955 710 c10 -11 22 -17 27 -14 5 3 1 12 -9 20 -27 20 -39 17 -18 -6z"/>
<path d="M3797 713 c-7 -12 89 -120 98 -111 4 4 -6 24 -23 45 -40 51 -69 76 -75 66z"/>
<path d="M3795 650 c-10 -17 32 -57 45 -44 7 7 3 17 -14 33 -17 16 -26 19 -31 11z"/>
<path d="M586 4869 c-12 -11 -15 -19 -7 -19 13 0 41 24 41 34 0 11 -15 5 -34 -15z"/>
<path d="M480 4820 c0 -5 9 -10 20 -10 11 0 20 5 20 10 0 6 -9 10 -20 10 -11 0 -20 -4 -20 -10z"/>
<path d="M273 4798 c-12 -16 -16 -3922 -4 -4018 5 -36 9 852 10 1973 l1 2037 79 0 c44 0 83 5 86 10 10 15 -160 13 -172 -2z"/>
<path d="M9135 4800 c3 -5 46 -10 96 -10 l89 0 2 -1702 c1 -1057 4 -1559 9 -1323 11 655 10 2979 -2 3014 l-11 31 -95 0 c-60 0 -92 -4 -88 -10z"/>
<path d="M280 698 c0 -5 39 -8 88 -7 65 0 81 3 63 10 -27 11 -151 8 -151 -3z"/>
<path d="M9180 700 c0 -6 25 -10 58 -9 41 0 51 3 37 9 -28 12 -95 12 -95 0z"/>
<path d="M8928 570 c-25 -26 -40 -53 -44 -80 -4 -22 -10 -40 -15 -40 -5 0 -9 -40 -9 -89 l0 -88 -2947 0 c-3355 0 -5193 -5 -5193 -14 0 -4 6 -11 13 -16 13 -10 694 -8 790 2 38 5 62 3 72 -5 10 -8 111 -11 362 -10 191 0 1457 -1 2813 -4 1356 -3 2839 -3 3295 2 l830 7 3 80 c2 44 7 84 12 89 6 6 10 20 10 33 0 12 11 46 24 75 49 108 44 123 -16 58z"/>
</g>
<g id="layer107" fill="#f9f9f9" stroke="none">
<path d="M707 5183 c-10 -100 -9 -155 3 -148 6 3 10 48 10 100 l0 94 33 5 c17 3 1853 5 4080 3 2226 -1 4047 1 4047 6 0 4 -1838 7 -4084 7 l-4083 0 -6 -67z"/>
<path d="M8880 5147 c0 -42 5 -79 10 -82 8 -5 9 18 4 72 -4 43 -8 80 -10 82 -2 2 -4 -30 -4 -72z"/>
<path d="M837 5123 c-3 -5 -8 -35 -12 -68 -6 -56 -14 -83 -36 -127 -5 -10 -9 -24 -9 -32 0 -16 -103 -126 -118 -126 -6 0 -12 -4 -14 -8 -7 -17 -149 -71 -193 -73 -32 -2 -49 -8 -56 -20 -10 -19 -13 -3798 -3 -3836 5 -19 13 -23 47 -23 64 0 210 -57 221 -86 3 -8 10 -14 16 -14 12 0 60 -45 60 -57 0 -4 9 -19 20 -33 11 -14 20 -33 20 -42 0 -10 5 -18 10 -18 6 0 10 -11 10 -25 0 -14 4 -33 9 -43 5 -9 13 -39 18 -67 l8 -50 3645 -5 c2005 -3 3790 -4 3967 -2 l321 3 7 71 c4 40 11 79 15 88 4 8 14 28 21 45 14 29 30 53 56 80 7 8 13 16 13 20 0 10 27 35 37 35 5 0 18 8 29 18 10 9 33 23 49 31 17 7 38 17 47 22 10 5 27 9 37 9 11 0 23 5 26 10 3 6 26 10 51 10 24 0 45 5 45 10 1 6 3 22 4 38 1 15 3 875 4 1912 l2 1885 -22 18 c-14 11 -38 17 -70 17 -26 0 -51 5 -54 10 -3 6 -16 10 -28 10 -12 0 -33 9 -47 20 -14 11 -29 20 -33 20 -14 0 -112 106 -126 137 -7 15 -17 36 -22 45 -5 10 -9 27 -9 38 0 11 -4 20 -9 20 -4 0 -11 27 -14 59 -3 33 -8 64 -12 70 -7 13 -7921 16 -7928 4z m7853 -143 c0 -22 5 -40 10 -40 6 0 10 -13 10 -30 0 -16 4 -30 9 -30 5 0 14 -14 21 -30 7 -16 16 -30 20 -30 3 0 13 -12 21 -27 15 -30 114 -133 127 -133 14 0 62 -25 62 -32 0 -5 9 -8 20 -8 11 0 20 -4 20 -10 0 -5 11 -10 25 -10 13 0 36 -5 50 -12 l25 -11 0 -1839 0 -1838 -30 0 c-16 0 -30 -4 -30 -10 0 -5 -9 -10 -19 -10 -11 0 -23 -4 -26 -10 -3 -5 -17 -10 -31 -10 -13 0 -24 -4 -24 -10 0 -5 -8 -10 -18 -10 -10 0 -24 -9 -32 -20 -8 -11 -20 -20 -27 -20 -17 0 -103 -87 -103 -105 0 -8 -4 -15 -8 -15 -14 0 -72 -133 -72 -163 0 -16 -4 -26 -9 -23 -5 4 -11 1 -13 -4 -2 -8 -1154 -11 -3873 -11 l-3870 0 -23 63 c-12 35 -25 71 -28 81 -4 9 -10 17 -15 17 -5 0 -9 8 -9 18 0 10 -9 24 -20 32 -11 8 -20 20 -20 28 0 15 -60 76 -80 80 -8 2 -21 12 -31 23 -9 10 -22 19 -28 19 -7 0 -9 5 -6 10 5 9 -24 15 -48 11 -5 -1 -6 3 -2 9 4 6 -4 10 -19 10 -14 0 -26 5 -26 10 0 6 -13 10 -28 10 -15 0 -33 5 -40 12 -9 9 -12 431 -12 1836 0 1983 -4 1852 54 1852 14 0 26 5 26 10 0 6 9 10 20 10 11 0 20 5 20 10 0 6 14 10 31 10 17 0 28 4 24 10 -3 6 1 10 9 10 9 0 16 5 16 10 0 6 7 10 16 10 8 0 12 5 9 10 -3 6 1 10 10 10 19 0 105 82 105 100 0 7 8 20 18 29 18 17 33 45 51 99 6 17 16 46 22 62 l11 30 3879 0 3879 0 0 -40z"/>
<path d="M7914 3815 c4 -12 -4 -15 -47 -13 -29 1 -1672 0 -3652 -2 l-3600 -5 3657 -5 c3634 -5 3657 -5 3672 -25 38 -53 222 -442 213 -451 -7 -7 -26 15 -45 52 -32 62 -102 133 -139 140 -25 5 -37 1 -57 -19 -42 -42 -36 -103 19 -206 25 -45 45 -89 45 -97 0 -13 -16 -19 -64 -26 -15 -2 -27 16 -62 97 -55 125 -110 208 -135 202 -10 -3 -24 2 -30 10 -16 18 -63 43 -84 43 -29 0 -65 -46 -65 -84 l0 -36 -52 54 c-61 63 -96 76 -134 52 -33 -22 -47 -61 -41 -116 4 -37 3 -42 -7 -26 -68 114 -115 156 -172 156 -44 0 -74 -38 -74 -94 0 -29 13 -65 45 -125 25 -46 43 -86 41 -88 -24 -24 -143 94 -211 208 -27 46 -54 87 -60 91 -14 11 -75 10 -75 -1 0 -20 341 -689 364 -714 19 -21 34 -27 66 -27 22 0 40 4 40 9 0 6 -13 29 -29 53 -36 54 -156 269 -206 368 l-37 75 38 -36 c78 -73 219 -150 245 -133 5 3 -13 47 -41 98 -56 105 -100 214 -100 251 0 68 80 -2 145 -127 24 -45 41 -68 50 -64 9 3 24 -12 39 -39 56 -95 178 -166 261 -151 32 6 85 46 85 64 0 18 -33 23 -42 8 -17 -30 -45 -37 -80 -23 -80 34 -224 242 -216 313 9 81 97 10 188 -151 59 -105 81 -124 129 -109 l30 9 -36 60 c-51 86 -74 152 -71 199 l3 41 45 -46 c25 -26 61 -77 80 -113 26 -49 39 -66 52 -62 18 4 49 -71 87 -211 11 -40 22 -77 26 -83 11 -17 43 -11 59 12 22 32 20 60 -9 102 l-24 36 74 0 c64 0 75 3 75 17 0 9 -25 71 -56 136 -31 66 -59 137 -61 158 -5 35 -3 39 16 39 24 0 68 -55 112 -142 16 -32 37 -62 48 -67 26 -14 47 -96 34 -132 -9 -24 -8 -28 11 -33 11 -3 36 -6 55 -6 l34 0 -5 69 -5 69 37 -47 c82 -104 142 -127 191 -75 73 77 -29 317 -164 385 -41 21 -106 29 -148 17 -25 -7 -27 -4 -78 125 -29 72 -55 138 -58 145 -4 9 81 12 406 12 369 0 410 2 404 16 -5 14 -51 15 -420 13 -304 -2 -417 1 -425 9 -7 7 -34 12 -61 12 -40 0 -48 -3 -43 -15z m359 -376 c57 -38 140 -145 167 -217 24 -62 24 -72 7 -96 -23 -31 -68 2 -130 96 -72 109 -139 233 -130 241 13 14 41 6 86 -24z"/>
<path d="M4306 3608 c-66 -12 -183 -67 -228 -107 -134 -118 -125 -396 16 -482 69 -42 93 -4 27 44 -79 55 -106 177 -67 294 21 64 92 133 174 170 108 49 279 42 407 -17 123 -56 199 -138 303 -327 77 -138 214 -435 205 -444 -15 -14 -169 -48 -265 -59 -168 -19 -296 18 -379 107 -51 55 -69 98 -69 163 0 43 5 56 28 80 35 34 103 48 156 30 44 -14 105 -76 113 -113 8 -39 39 -32 36 8 -6 79 -111 159 -205 157 -164 -4 -252 -167 -175 -324 58 -117 163 -177 328 -185 110 -6 153 1 336 59 l132 41 41 -36 c44 -41 74 -47 89 -18 12 21 5 31 -19 31 -20 0 -55 36 -43 43 26 16 190 50 265 55 l87 5 11 -27 c12 -33 34 -30 38 5 10 81 -168 89 -375 18 -31 -10 -60 -19 -64 -19 -16 0 -89 159 -134 292 -100 293 -195 431 -346 503 -122 58 -290 79 -423 53z"/>
<path d="M6065 3610 c-114 -16 -207 -61 -268 -129 -52 -58 -70 -104 -71 -187 0 -63 4 -80 37 -147 26 -52 54 -90 93 -126 87 -80 154 -86 71 -7 -82 79 -138 230 -121 330 23 142 135 215 339 223 174 8 319 -38 426 -135 57 -51 109 -148 109 -204 0 -97 -55 -151 -235 -231 -205 -91 -255 -138 -255 -237 0 -53 18 -86 73 -137 57 -53 90 -70 184 -94 151 -38 310 -19 381 46 33 30 37 39 37 83 0 40 -5 56 -25 77 -27 30 -78 55 -111 55 -29 0 -19 -22 17 -33 47 -16 64 -36 64 -80 0 -79 -106 -137 -225 -123 -210 24 -347 146 -278 246 30 44 55 59 209 134 88 43 169 89 194 112 48 43 79 103 80 150 1 151 -209 345 -430 397 -84 20 -219 28 -295 17z"/>
<path d="M704 3535 c-81 -37 -109 -124 -59 -184 59 -70 163 -68 313 4 l102 48 26 -24 c41 -38 126 -172 214 -338 86 -162 133 -241 183 -304 34 -44 34 -45 -50 -77 -196 -74 -427 -33 -569 102 -117 111 -127 240 -22 283 85 34 177 -7 212 -95 16 -41 32 -51 42 -25 10 24 -14 80 -49 113 -104 101 -269 75 -328 -53 -93 -201 170 -406 522 -407 97 0 215 24 280 58 29 15 31 14 77 -27 56 -49 99 -72 118 -65 20 8 17 24 -6 31 -11 4 -36 29 -54 57 l-34 50 77 77 c51 50 87 98 109 141 83 167 78 369 -14 493 -74 101 -202 152 -379 151 -120 0 -190 -13 -277 -51 l-56 -25 -78 38 c-71 35 -84 39 -173 41 -67 2 -106 -2 -127 -12z m259 -65 c26 -12 47 -26 47 -30 0 -13 -159 -80 -205 -87 -39 -5 -49 -2 -70 17 -33 31 -33 73 1 107 24 24 30 25 102 21 51 -3 93 -12 125 -28z m539 19 c73 -15 163 -65 203 -112 50 -58 70 -125 70 -232 -1 -114 -28 -197 -95 -293 -58 -82 -89 -108 -106 -89 -6 6 -62 95 -124 197 -147 241 -239 376 -289 425 -23 21 -41 43 -41 47 0 11 64 37 130 53 69 17 182 18 252 4z"/>
<path d="M5232 3508 c-30 -30 4 -98 47 -98 46 0 67 62 33 93 -22 20 -63 22 -80 5z"/>
<path d="M1968 3492 c-65 -39 -73 -134 -21 -241 35 -74 115 -154 176 -176 45 -17 50 -17 83 -2 30 15 34 21 34 55 0 28 -9 51 -30 81 -37 50 -76 76 -152 99 -57 17 -58 17 -64 61 -9 62 10 95 57 99 30 3 43 -4 82 -40 26 -24 62 -72 81 -108 19 -38 40 -65 48 -64 20 2 62 -117 53 -145 -6 -19 -2 -21 45 -21 33 0 52 5 56 13 2 7 -23 77 -56 156 -42 97 -60 152 -58 174 7 74 71 30 142 -97 27 -47 53 -86 60 -86 6 0 23 -20 39 -44 72 -114 183 -170 272 -136 25 10 26 8 108 -158 90 -181 103 -195 165 -176 l30 9 -60 100 c-32 55 -106 195 -164 310 -109 217 -132 289 -100 301 34 13 76 -36 159 -186 14 -25 20 -30 31 -21 11 9 19 -2 40 -61 14 -40 34 -106 45 -145 11 -40 22 -77 26 -83 11 -17 43 -11 59 12 22 32 20 60 -9 102 l-24 36 74 0 c64 0 75 3 75 17 0 9 -25 71 -56 136 -31 66 -59 137 -61 158 -5 35 -3 39 16 39 24 0 68 -55 113 -144 16 -32 37 -60 47 -63 9 -2 29 -24 44 -48 38 -60 95 -109 151 -130 44 -17 49 -17 82 -2 30 15 34 21 34 55 0 28 -9 51 -30 81 -37 50 -76 76 -152 99 -57 17 -58 17 -64 61 -9 62 10 95 57 99 30 3 43 -4 82 -40 26 -24 62 -72 80 -107 33 -64 57 -88 57 -57 0 28 -59 135 -98 178 -42 47 -85 68 -138 68 -79 0 -131 -64 -121 -149 l6 -46 -24 46 c-35 68 -104 138 -142 145 -25 5 -37 1 -57 -19 -42 -42 -36 -103 19 -206 25 -45 45 -89 45 -97 0 -13 -16 -19 -64 -26 -15 -2 -27 16 -62 97 -52 118 -110 207 -133 203 -9 -1 -32 7 -52 20 -20 12 -48 22 -63 22 -37 0 -76 -41 -76 -79 l0 -31 -53 55 c-58 60 -84 67 -136 40 -34 -17 -41 -32 -41 -92 l0 -45 -42 63 c-54 79 -101 106 -153 89 -40 -13 -55 -40 -55 -97 l0 -36 -29 39 c-56 77 -101 104 -169 104 -20 0 -49 -8 -64 -18z m664 -79 c19 -21 49 -58 65 -83 43 -64 123 -207 123 -220 0 -21 -53 -9 -96 22 -81 58 -174 203 -174 271 0 60 30 64 82 10z m-536 -154 c48 -23 91 -74 100 -117 14 -68 -48 -37 -122 61 -62 83 -57 95 22 56z m1400 0 c48 -23 91 -74 100 -117 14 -68 -48 -37 -122 61 -62 83 -57 95 22 56z"/>
<path d="M8618 3492 c-65 -39 -73 -134 -21 -241 35 -74 115 -154 176 -176 45 -17 50 -17 83 -2 30 15 34 21 34 55 0 28 -9 51 -30 81 -37 50 -76 76 -152 99 -57 17 -58 17 -64 61 -9 62 10 95 57 99 30 3 43 -4 82 -40 26 -24 62 -72 80 -107 33 -64 57 -88 57 -57 0 28 -59 135 -98 178 -60 67 -145 88 -204 50z m128 -233 c48 -23 91 -74 100 -117 14 -68 -48 -37 -122 61 -62 83 -57 95 22 56z"/>
<path d="M2372 3038 c-18 -18 -14 -56 8 -78 37 -37 90 -21 90 27 0 47 -67 82 -98 51z"/>
<path d="M3950 2467 c48 -66 213 -263 339 -404 125 -140 736 -751 816 -816 28 -22 -49 59 -171 181 -122 122 -219 222 -216 222 2 0 -1 7 -8 15 -7 8 -16 12 -21 10 -4 -3 -16 6 -26 21 -35 50 -196 223 -203 219 -4 -3 -18 9 -31 27 -13 17 -43 52 -66 78 -44 48 -57 73 -25 49 9 -7 1 5 -18 26 -19 22 -36 41 -37 43 0 2 -7 4 -15 6 -20 3 -38 16 -38 28 0 6 7 5 18 -3 15 -13 16 -12 3 3 -7 10 -17 16 -21 13 -8 -5 -70 69 -70 84 0 5 -8 16 -18 23 -26 18 -112 137 -112 154 0 13 -34 34 -86 54 l-25 10 31 -43z m346 -359 l29 -33 -32 29 c-31 28 -38 36 -30 36 2 0 16 -15 33 -32z"/>
<path d="M5884 2456 c-94 -54 -281 -189 -469 -339 -196 -158 -355 -292 -355 -299 0 -4 10 -8 23 -8 16 0 18 -3 8 -9 -7 -5 -9 -11 -4 -14 5 -3 67 44 139 105 136 117 387 327 466 391 48 38 58 43 58 29 0 -9 -260 -247 -497 -458 -68 -59 -123 -111 -123 -115 0 -4 12 -9 27 -12 34 -6 31 -9 268 213 283 265 521 517 504 535 -3 2 -23 -6 -45 -19z"/>
<path d="M5444 2062 c-330 -280 -328 -278 -316 -286 6 -3 113 85 243 201 315 282 305 272 299 272 -3 0 -104 -84 -226 -187z"/>
<path d="M4548 2123 c18 -2 45 -2 60 0 15 2 0 4 -33 4 -33 0 -45 -2 -27 -4z"/>
<path d="M4575 2090 c-32 -6 -34 -7 -12 -9 16 0 25 -5 22 -11 -5 -8 37 -15 48 -8 1 1 12 -4 25 -11 17 -9 22 -9 20 0 -2 7 7 18 20 24 22 12 21 12 -15 19 -42 7 -51 6 -108 -4z"/>
<path d="M4714 2063 c13 -3 15 -7 7 -12 -7 -4 2 -8 20 -8 31 0 31 0 7 13 -12 7 -30 13 -38 12 -9 0 -8 -2 4 -5z"/>
<path d="M4272 2028 c5 -15 28 -18 29 -3 0 6 -7 12 -17 13 -10 3 -15 -1 -12 -10z"/>
<path d="M4615 2011 c3 -5 1 -12 -5 -16 -5 -3 -10 -2 -10 3 0 6 -9 8 -21 5 -40 -11 -2 -21 96 -25 55 -3 106 -3 113 -1 25 9 10 20 -28 20 -22 0 -40 -4 -40 -8 0 -5 -12 -4 -26 2 -15 5 -29 7 -32 5 -2 -3 -11 1 -19 9 -16 16 -38 20 -28 6z"/>
<path d="M4280 1985 c-10 -13 -9 -15 9 -15 12 0 21 6 21 15 0 8 -4 15 -9 15 -5 0 -14 -7 -21 -15z"/>
<path d="M4815 1980 c-4 -6 7 -10 27 -10 25 0 29 3 18 10 -19 13 -37 13 -45 0z"/>
<path d="M4600 1960 c45 -8 187 -13 179 -6 -2 2 -53 6 -114 9 -73 4 -95 3 -65 -3z"/>
<path d="M4593 1934 c9 -3 17 -10 17 -15 0 -5 8 -9 18 -10 14 0 14 -2 -3 -9 -15 -6 -16 -9 -4 -9 8 -1 33 -10 55 -21 l39 -21 -45 5 -45 5 47 -12 c60 -15 70 -27 27 -29 -44 -1 78 -15 151 -17 39 0 51 2 40 9 -13 8 -12 10 3 10 19 0 23 15 6 26 -7 4 -50 7 -98 7 l-86 0 80 7 80 6 -80 3 -80 4 85 8 c46 5 88 13 93 18 5 5 -4 7 -20 5 -24 -4 -25 -3 -8 5 11 5 16 11 10 12 -27 6 -303 19 -282 13z"/>
<path d="M4431 1843 c8 -10 20 -22 27 -26 6 -4 12 -15 12 -24 0 -9 6 -13 14 -10 9 4 19 -5 26 -24 8 -19 18 -28 26 -25 9 3 14 -2 14 -14 0 -10 5 -22 11 -26 14 -8 3 29 -18 66 -8 14 -12 17 -9 7 3 -11 2 -15 -4 -12 -6 3 -10 13 -10 21 0 8 -4 14 -10 14 -5 0 -24 16 -41 35 -33 35 -63 50 -38 18z"/>
<path d="M4790 1780 c13 -8 13 -10 -1 -10 -16 0 -19 -26 -5 -48 15 -25 169 -4 194 27 7 9 11 10 7 4 -3 -7 -2 -13 3 -13 6 0 12 7 16 15 3 8 12 12 21 9 8 -3 15 -2 15 4 0 11 -96 22 -194 22 -50 0 -66 -3 -56 -10z"/>
<path d="M5080 1750 c-12 -8 -11 -10 7 -10 12 0 25 5 28 10 8 13 -15 13 -35 0z"/>
<path d="M4900 1705 c-52 -7 -97 -13 -100 -15 -3 -2 13 -6 35 -10 l40 -7 -45 -3 c-42 -2 -43 -3 -15 -10 17 -4 59 -9 95 -10 50 -3 56 -4 25 -7 -46 -5 -72 -22 -34 -24 13 -1 39 0 57 1 17 1 32 -3 32 -9 0 -6 -12 -11 -26 -11 -31 0 -28 -23 4 -28 31 -5 27 -20 -5 -26 -16 -2 15 -2 67 1 52 3 108 4 124 4 15 -1 34 3 42 10 7 6 22 8 33 4 11 -3 23 -1 27 6 7 11 -100 9 -206 -6 -40 -5 55 19 113 30 38 6 38 7 21 26 -16 18 -16 19 9 19 14 0 29 5 32 10 4 7 -14 9 -52 6 -45 -4 -51 -3 -28 4 22 7 11 8 -45 5 l-75 -4 55 13 c46 10 51 13 33 20 -13 4 -33 4 -45 0 -13 -3 -20 -3 -16 1 4 4 22 11 40 15 54 13 -81 9 -192 -5z"/>
<path d="M4585 1663 c3 -27 13 -53 21 -60 9 -6 15 -14 14 -18 -1 -4 2 -10 5 -13 4 -4 4 11 0 33 -4 22 -8 49 -7 60 0 11 -2 14 -5 7 -6 -16 -23 -6 -23 14 0 9 5 12 12 8 7 -4 8 -3 4 4 -17 28 -28 10 -21 -35z"/>
<path d="M4642 1600 c0 -25 3 -54 8 -65 l9 -20 1 20 c1 17 3 17 13 -6 7 -14 17 -24 23 -22 6 2 17 -15 24 -37 7 -22 17 -40 22 -40 13 0 45 -36 53 -59 3 -12 11 -19 16 -16 5 4 9 1 9 -5 0 -6 4 -9 9 -6 5 3 12 -1 15 -10 4 -9 9 -14 13 -11 3 4 12 -1 19 -11 18 -23 17 -6 -3 59 -16 52 -17 53 -24 24 -4 -19 -7 -23 -8 -10 -2 35 -22 95 -31 95 -5 0 -10 -8 -12 -17 -3 -12 -9 -2 -18 25 -13 43 -29 56 -31 25 0 -13 -3 -11 -12 7 -6 14 -14 27 -18 30 -3 3 -9 12 -12 20 -3 8 -6 -1 -7 -20 -2 -33 -3 -31 -14 18 -16 64 -30 81 -24 30 2 -21 1 -35 -3 -30 -4 4 -9 23 -12 42 -3 30 -4 29 -5 -10z"/>
<path d="M4076 1520 c4 -14 14 -30 23 -37 14 -11 12 -12 -11 -13 -15 0 -39 -10 -54 -23 -23 -20 -25 -26 -15 -45 12 -23 45 -30 57 -11 3 6 1 16 -5 22 -8 8 -11 6 -11 -7 0 -21 -24 -16 -28 7 -2 9 8 23 21 31 21 15 28 15 67 1 24 -8 45 -13 48 -10 3 3 22 -9 41 -27 24 -23 29 -25 16 -8 -20 25 -49 47 -51 39 -5 -14 -42 36 -39 53 3 16 1 17 -9 9 -11 -9 -19 -5 -35 16 -22 28 -22 28 -15 3z"/>
<path d="M5215 1530 c-25 -7 -23 -8 17 -6 27 0 48 4 48 9 0 8 -24 7 -65 -3z"/>
<path d="M5156 1523 c-15 -4 -16 -7 -5 -15 10 -6 5 -8 -16 -5 -16 2 -24 2 -17 0 7 -3 10 -9 7 -14 -4 -5 4 -9 17 -10 23 -1 23 -1 -2 -10 -18 -6 -6 -8 40 -5 60 3 120 21 120 35 0 3 -29 6 -64 6 -47 0 -62 3 -59 13 3 6 4 11 2 11 -2 -1 -13 -4 -23 -6z m69 -33 c-3 -5 -18 -9 -33 -9 l-27 1 30 8 c17 4 31 8 33 9 2 0 0 -3 -3 -9z"/>
<path d="M5033 1493 c9 -2 25 -2 35 0 9 3 1 5 -18 5 -19 0 -27 -2 -17 -5z"/>
<path d="M4589 1423 c-145 -127 -191 -163 -200 -158 -5 4 -9 1 -9 -6 0 -8 -5 -7 -17 2 -16 13 -17 12 -4 -4 18 -23 7 -34 -14 -13 -9 9 -19 16 -23 16 -3 0 -1 -5 5 -11 6 -6 9 -17 7 -24 -3 -7 -1 -16 5 -20 7 -4 9 1 5 12 -3 10 11 0 30 -21 20 -22 36 -35 36 -29 0 5 -9 18 -20 28 -11 10 -20 23 -20 28 0 6 14 -2 30 -18 17 -16 28 -35 26 -42 -3 -7 0 -12 7 -10 7 1 11 -7 9 -18 -1 -12 8 -31 23 -45 30 -28 34 -19 5 12 -11 12 -20 26 -20 31 0 6 9 2 20 -8 37 -33 21 -6 -35 60 -31 36 -53 65 -50 65 3 0 19 -7 35 -15 29 -15 29 -15 117 62 172 154 165 145 145 169 l-18 22 -75 -65z"/>
<path d="M5175 1441 l-90 -4 95 -12 c52 -7 78 -13 58 -14 -20 0 -39 -5 -42 -10 -4 -5 3 -7 14 -4 11 3 20 0 20 -6 0 -6 -15 -11 -32 -12 -32 0 -33 0 -8 -10 27 -11 158 -3 194 11 16 7 17 9 5 9 -9 1 -19 10 -22 22 -4 14 -10 18 -19 13 -10 -6 -10 -4 1 9 15 19 24 18 -174 8z"/>
<path d="M4084 1425 c11 -8 24 -15 28 -15 20 0 141 -85 168 -118 17 -20 30 -32 30 -27 0 43 -169 174 -225 174 -20 0 -20 0 -1 -14z"/>
<path d="M4594 1331 c-79 -69 -107 -99 -100 -107 8 -8 42 17 123 88 62 55 113 101 113 103 0 2 -6 5 -12 7 -7 3 -63 -38 -124 -91z"/>
<path d="M4880 1398 c0 -27 33 -128 42 -128 6 0 8 6 5 13 -2 6 -12 38 -21 70 -16 54 -26 72 -26 45z"/>
<path d="M4675 1344 c-33 -30 -88 -78 -122 -106 -66 -54 -69 -60 -52 -105 9 -24 12 -25 20 -12 6 13 159 151 252 229 4 3 -3 16 -15 27 l-23 21 -60 -54z"/>
<path d="M4925 1339 c4 -24 13 -57 20 -74 12 -30 55 -76 55 -59 0 5 5 2 10 -6 15 -23 13 3 -6 66 -20 70 -36 80 -18 12 17 -67 12 -72 -10 -11 -33 91 -39 103 -48 109 -7 4 -8 -9 -3 -37z"/>
<path d="M5213 1329 c10 -6 35 -8 59 -4 29 5 39 4 34 -4 -4 -6 -27 -11 -52 -11 -28 0 -43 -4 -39 -10 11 -18 215 -7 215 11 0 5 -19 10 -42 10 -40 1 -41 2 -13 9 20 5 -6 8 -75 9 -78 0 -100 -2 -87 -10z"/>
<path d="M5020 1248 c6 -18 15 -46 22 -62 10 -26 12 -27 19 -10 6 15 8 16 8 3 1 -18 28 -45 37 -37 3 3 -5 28 -18 54 -21 45 -23 47 -28 24 -6 -24 -7 -24 -14 7 -4 17 -14 37 -21 43 -12 10 -13 6 -5 -22z"/>
<path d="M5286 1265 c-4 -12 4 -15 43 -15 62 0 112 10 105 21 -3 5 -36 9 -74 9 -51 0 -69 -4 -74 -15z"/>
<path d="M5426 1242 c-3 -5 -28 -7 -56 -4 -29 3 -63 -1 -82 -9 l-32 -13 26 -7 c29 -8 158 5 203 19 22 8 24 11 10 11 -11 1 -30 4 -41 7 -12 3 -24 1 -28 -4z"/>
<path d="M5114 1168 c6 -29 35 -73 43 -64 5 5 -35 96 -43 96 -4 0 -4 -14 0 -32z"/>
<path d="M5348 1192 c-41 -11 -43 -13 -28 -22 8 -6 26 -10 39 -10 16 0 21 -4 17 -15 -4 -10 1 -15 16 -15 12 0 19 -3 15 -6 -3 -4 1 -13 10 -22 13 -13 20 -14 47 -2 17 7 41 13 53 14 12 0 19 3 17 5 -3 3 6 11 18 18 21 12 17 13 -37 9 -58 -5 -59 -5 -30 9 17 8 36 14 43 15 13 0 17 20 3 20 -5 0 -25 -7 -44 -15 -20 -8 -49 -15 -64 -15 -24 1 -21 3 17 17 25 8 47 17 49 19 5 5 -122 1 -141 -4z"/>
<path d="M5155 1149 c4 -13 15 -37 23 -54 12 -23 17 -26 20 -13 4 18 -21 73 -39 84 -8 4 -9 -1 -4 -17z"/>
<path d="M4315 1130 c28 -12 37 -12 30 0 -3 6 -16 10 -28 9 -21 0 -21 -1 -2 -9z"/>
<path d="M5200 1129 c0 -3 5 -20 11 -38 11 -32 29 -42 29 -17 0 13 -39 67 -40 55z"/>
<path d="M5255 1063 c6 -26 25 -47 33 -38 5 4 -27 65 -34 65 -4 0 -3 -12 1 -27z"/>
<path d="M5485 1080 l-30 -7 30 -4 30 -5 -25 -11 c-24 -11 -23 -12 15 -13 26 0 35 -3 26 -9 -19 -12 1 -22 39 -19 37 3 38 31 1 36 -19 3 -21 6 -10 13 10 6 6 9 -16 10 -29 1 -30 1 -5 9 l25 8 -25 0 c-14 0 -38 -4 -55 -8z"/>
<path d="M4231 1046 c2 -2 31 -11 63 -20 32 -8 55 -11 50 -7 -13 12 -125 38 -113 27z"/>
<path d="M4526 1008 c38 -40 75 -105 99 -173 21 -57 35 -78 35 -51 0 56 -105 234 -148 251 -10 3 -4 -8 14 -27z"/>
<path d="M5300 1029 c0 -9 7 -22 15 -29 19 -16 19 0 0 26 -12 16 -14 16 -15 3z"/>
<path d="M5340 993 c0 -16 6 -23 19 -23 11 0 21 -9 24 -22 4 -12 9 -20 12 -16 3 3 1 18 -5 33 -6 15 -13 25 -17 22 -3 -4 -12 1 -19 11 -12 16 -13 15 -14 -5z"/>
<path d="M4255 990 c11 -5 27 -9 35 -9 9 0 8 4 -5 9 -11 5 -27 9 -35 9 -9 0 -8 -4 5 -9z"/>
<path d="M4140 976 c0 -7 112 -38 117 -33 2 3 -20 12 -50 21 -59 17 -67 18 -67 12z"/>
<path d="M5416 935 c9 -38 13 -45 25 -45 13 0 1 40 -18 60 -13 13 -13 11 -7 -15z"/>
<path d="M5605 950 c-3 -5 -17 -10 -31 -10 -14 0 -22 -4 -19 -10 8 -13 145 -13 165 0 11 7 3 10 -30 11 -41 1 -43 2 -15 9 27 7 25 8 -17 9 -26 0 -50 -3 -53 -9z"/>
<path d="M4070 907 c0 -7 92 -38 98 -32 3 2 -7 9 -22 15 -39 15 -76 23 -76 17z"/>
<path d="M5460 899 c0 -20 24 -42 35 -31 5 4 5 -1 2 -10 -4 -12 -1 -18 8 -18 8 0 15 4 15 8 0 12 -29 49 -30 38 0 -6 -7 -1 -15 10 -12 16 -14 16 -15 3z"/>
<path d="M5654 892 c5 -8 -3 -12 -26 -12 -27 -1 -30 -2 -16 -11 20 -11 148 -1 148 12 0 5 -11 9 -24 9 -13 0 -38 3 -56 7 -24 4 -31 3 -26 -5z"/>
<path d="M4084 851 c28 -11 52 -19 54 -16 6 5 -38 23 -76 30 -15 3 -5 -3 22 -14z"/>
<path d="M4660 847 c17 -47 12 -85 -11 -97 -23 -13 -49 -7 -49 11 0 6 7 9 15 5 8 -3 15 -1 15 4 0 16 -30 11 -36 -5 -8 -19 13 -45 36 -45 24 0 50 32 50 63 0 33 12 34 34 5 13 -18 15 -19 7 -3 -5 11 -23 36 -40 55 -30 34 -31 34 -21 7z"/>
<path d="M5537 831 c3 -11 14 -28 25 -38 21 -18 21 -18 4 14 -19 37 -36 51 -29 24z"/>
<path d="M5700 829 c-24 -7 -24 -7 5 -9 26 -1 27 -3 10 -10 -33 -13 4 -22 50 -11 38 8 38 9 10 11 -26 1 -27 3 -10 10 11 5 18 9 15 11 -14 5 -58 4 -80 -2z"/>
<path d="M5580 805 c0 -12 90 -95 103 -95 7 0 3 7 -8 16 -11 8 -37 31 -57 50 -21 20 -38 33 -38 29z"/>
<path d="M3849 723 c90 -107 110 -127 111 -116 0 15 -129 163 -142 163 -5 0 8 -21 31 -47z"/>
<path d="M3910 716 c24 -25 46 -46 48 -46 8 0 -71 85 -82 89 -6 2 9 -17 34 -43z"/>
<path d="M3954 712 c10 -12 23 -19 28 -16 11 7 11 7 -22 24 -25 13 -25 13 -6 -8z"/>
<path d="M3800 703 c1 -14 89 -107 96 -101 3 4 -13 30 -37 57 -41 48 -60 61 -59 44z"/>
<path d="M3800 642 c0 -12 7 -25 15 -29 24 -9 25 0 5 27 l-20 25 0 -23z"/>
<path d="M586 4869 c-11 -10 -15 -19 -9 -19 5 0 18 9 28 20 23 26 6 25 -19 -1z"/>
<path d="M485 4820 c-3 -5 1 -10 9 -10 8 0 18 5 21 10 3 6 -1 10 -9 10 -8 0 -18 -4 -21 -10z"/>
<path d="M274 4798 c-8 -12 -6 -4049 2 -4057 2 -2 4 908 4 2022 l0 2027 73 0 c39 0 79 5 87 10 10 7 -12 10 -72 10 -56 0 -89 -4 -94 -12z"/>
<path d="M9140 4800 c8 -5 52 -10 98 -10 l82 0 0 -1702 c0 -936 2 -1699 5 -1697 7 8 8 3383 0 3402 -6 14 -21 17 -104 17 -66 0 -91 -3 -81 -10z"/>
<path d="M9324 1090 c0 -63 1 -89 3 -57 2 31 2 83 0 115 -2 31 -3 5 -3 -58z"/>
<path d="M340 699 c-27 -5 -17 -7 39 -8 41 0 72 1 70 3 -10 8 -77 12 -109 5z"/>
<path d="M9185 699 c-4 -5 15 -9 41 -9 26 0 45 2 43 5 -10 9 -79 13 -84 4z"/>
<path d="M9100 680 c0 -5 9 -10 19 -10 11 0 23 5 26 10 4 6 -5 10 -19 10 -14 0 -26 -4 -26 -10z"/>
<path d="M8928 570 c-25 -26 -40 -53 -44 -80 -4 -22 -10 -40 -15 -40 -5 0 -9 -40 -9 -89 l0 -88 -2947 0 c-3354 0 -5193 -5 -5193 -14 0 -4 6 -11 13 -16 13 -10 692 -8 790 3 38 4 62 2 72 -6 10 -8 111 -11 362 -10 191 0 1457 -1 2813 -4 1356 -3 2839 -3 3295 2 l830 7 3 80 c2 44 7 84 12 89 6 6 10 20 10 33 0 12 11 46 24 75 49 108 44 123 -16 58z"/>
<path d="M700 403 c0 -48 8 -73 22 -73 14 0 4 88 -11 103 -8 8 -11 0 -11 -30z"/>
<path d="M710 300 c0 -11 5 -20 10 -20 6 0 10 9 10 20 0 11 -4 20 -10 20 -5 0 -10 -9 -10 -20z"/>
</g>


</svg>