<!DOCTYPE svg PUBLIC "-//W3C//DTD SVG 20010904//EN" "http://www.w3.org/TR/2001/REC-SVG-20010904/DTD/svg10.dtd">
<svg version="1.0" xmlns="http://www.w3.org/2000/svg" width="750px" height="724px" viewBox="0 0 7500 7240" preserveAspectRatio="xMidYMid meet">
<g id="layer101" fill="#252123" stroke="none">
<path d="M4032 6736 c-104 -34 -159 -114 -149 -217 6 -68 34 -119 80 -148 54 -33 138 -31 172 4 39 38 33 59 -20 73 -124 33 -104 202 23 202 37 0 88 -33 107 -69 21 -41 19 -104 -4 -149 -11 -21 -56 -83 -100 -137 -85 -104 -121 -164 -122 -206 0 -17 -11 -2 -35 50 -67 143 -135 376 -148 502 -7 66 -8 67 -34 60 l-26 -7 -3 -190 c-1 -104 -2 -196 -3 -204 0 -8 0 -190 0 -405 0 -214 -3 -398 -6 -407 -3 -10 0 -26 5 -37 6 -11 7 -22 2 -25 -16 -11 2 -58 35 -90 45 -44 46 -83 2 -120 -48 -40 -96 -33 -128 19 -28 45 -25 59 15 101 l35 36 0 663 c0 641 -1 663 -19 668 -31 8 -38 -5 -45 -84 -7 -83 -47 -234 -93 -346 l-28 -72 -38 185 c-41 198 -41 214 9 214 29 0 30 9 4 60 -29 56 -60 74 -118 67 -38 -4 -53 -12 -78 -41 -31 -35 -31 -36 -49 -16 -28 31 -97 60 -144 60 -60 0 -116 -32 -142 -81 -42 -83 -18 -273 48 -386 70 -120 215 -186 306 -139 15 8 27 11 27 5 0 -5 32 -9 70 -9 39 0 70 -3 70 -7 0 -5 -34 -71 -77 -148 -42 -77 -87 -160 -100 -185 -34 -62 -82 -137 -120 -188 -18 -24 -33 -50 -33 -57 0 -8 -8 -18 -17 -24 -10 -5 -17 -13 -16 -18 3 -10 -40 -73 -49 -73 -11 0 -10 -57 0 -62 13 -5 169 -626 160 -633 -2 -1 -51 -25 -110 -54 -407 -198 -787 -551 -1340 -1246 -52 -66 -147 -185 -212 -264 -64 -79 -116 -149 -116 -156 0 -19 49 -55 74 -55 23 0 39 19 252 285 237 297 338 415 519 609 301 323 561 532 840 677 119 61 120 62 126 38 16 -57 12 -62 -74 -106 -296 -152 -482 -300 -811 -643 -117 -122 -134 -141 -282 -315 -135 -159 -468 -575 -463 -578 7 -5 60 -27 63 -27 2 0 93 111 203 247 550 687 933 1045 1332 1247 45 23 50 24 55 8 6 -18 27 -259 29 -324 1 -21 5 -38 9 -38 4 0 5 -7 2 -15 -5 -13 42 -15 390 -15 345 0 396 2 396 15 0 8 4 15 9 15 4 0 11 53 15 118 9 155 17 227 26 242 18 30 339 -171 520 -326 123 -105 370 -349 485 -479 93 -105 242 -280 280 -329 17 -22 62 -78 100 -125 39 -47 95 -117 124 -156 30 -38 57 -73 61 -78 6 -7 70 10 70 19 0 5 -210 270 -382 484 -51 63 -118 141 -148 175 -31 33 -78 86 -105 119 -126 151 -433 439 -599 562 -67 49 -246 159 -324 198 l-72 36 6 43 c4 23 7 43 8 44 1 1 33 -14 71 -34 303 -155 476 -286 772 -582 126 -126 399 -430 470 -523 36 -48 227 -285 322 -401 69 -85 75 -89 105 -83 17 4 38 16 48 28 20 27 17 31 -102 172 -41 49 -102 124 -135 167 -232 300 -471 576 -680 784 -241 241 -350 332 -545 454 -112 71 -267 151 -290 151 -7 0 -10 6 -7 13 2 6 10 46 17 87 18 115 56 269 106 442 l46 157 -29 38 c-35 47 -83 120 -83 129 0 3 -15 27 -33 53 -19 25 -48 71 -66 101 -18 30 -45 75 -60 101 l-28 45 41 -20 c63 -32 205 -30 264 4 59 33 82 74 82 144 0 68 -18 101 -65 116 -26 9 -41 8 -69 -4 -41 -17 -45 -36 -16 -73 42 -54 13 -133 -48 -133 -37 0 -71 25 -88 67 -21 50 -5 97 63 177 124 145 153 187 169 243 39 134 -21 260 -154 320 -67 31 -194 40 -260 19z m-781 -164 c29 -26 34 -42 65 -182 34 -160 33 -190 -5 -190 -69 0 -151 170 -151 313 0 87 35 109 91 59z"/>
<path d="M4250 4276 c0 -3 22 -58 48 -123 75 -183 120 -346 147 -533 13 -97 49 -302 108 -625 l13 -70 -46 -58 c-25 -32 -67 -87 -95 -121 -27 -35 -81 -105 -118 -157 -158 -219 -204 -288 -344 -518 -77 -128 -80 -131 -107 -131 l-22 0 17 98 c16 96 36 188 83 392 31 133 101 346 205 620 16 41 34 97 40 125 l12 50 -35 32 c-39 36 -118 63 -184 63 -36 0 -49 -5 -73 -31 -16 -17 -29 -36 -29 -42 0 -6 -6 -18 -13 -26 -25 -29 -106 -226 -166 -402 -82 -239 -129 -404 -151 -534 -11 -60 -26 -148 -34 -195 -16 -91 -24 -138 -25 -156 -1 -6 -24 -14 -52 -18 -28 -4 -77 -13 -108 -21 -31 -8 -123 -21 -206 -30 -187 -19 -450 -59 -530 -79 -121 -32 -213 -95 -235 -160 -6 -20 -9 -61 -6 -93 15 -171 19 -313 7 -313 -6 0 -37 9 -68 20 -78 27 -126 25 -227 -9 -101 -34 -124 -50 -201 -133 -78 -84 -98 -132 -99 -238 -1 -100 12 -148 69 -245 72 -125 249 -277 380 -328 146 -56 183 -69 277 -93 215 -54 346 -64 844 -64 249 0 486 4 526 10 40 5 143 19 228 30 150 20 398 67 510 96 30 8 88 21 128 30 71 15 278 81 337 109 17 7 66 28 110 46 44 18 105 48 135 67 58 37 230 171 230 181 0 3 19 26 41 51 54 61 121 163 149 230 18 43 23 74 23 141 0 74 -3 92 -27 136 -37 68 -123 152 -177 174 -85 35 -189 15 -278 -52 l-49 -37 -13 29 c-15 38 -7 175 16 278 43 185 -7 235 -248 252 -73 5 -179 13 -237 18 -58 6 -189 16 -291 22 l-186 13 40 65 c51 85 175 273 250 378 51 74 60 81 76 71 16 -9 30 -7 78 14 87 40 394 162 673 268 69 27 164 63 211 82 l87 33 -47 61 c-25 33 -59 78 -76 100 -321 420 -681 806 -965 1036 -71 57 -330 225 -330 214z"/>
</g>
<g id="layer102" fill="#0f4782" stroke="none">
<path d="M4032 6736 c-104 -34 -159 -114 -149 -217 6 -68 34 -119 80 -148 54 -33 138 -31 172 4 39 38 33 59 -20 73 -124 33 -104 202 23 202 37 0 88 -33 107 -69 21 -41 19 -104 -4 -149 -11 -21 -56 -83 -100 -137 -85 -104 -121 -164 -122 -206 0 -17 -11 -2 -35 50 -67 143 -135 376 -148 502 -7 66 -8 67 -34 60 l-26 -7 -3 -190 c-1 -104 -2 -196 -3 -204 0 -8 0 -190 0 -405 0 -214 -3 -398 -6 -407 -3 -10 0 -26 5 -37 6 -11 7 -22 2 -25 -16 -11 2 -58 35 -90 45 -44 46 -83 2 -120 -48 -40 -96 -33 -128 19 -28 45 -25 59 15 101 l35 36 0 663 c0 641 -1 663 -19 668 -31 8 -38 -5 -45 -84 -7 -83 -47 -234 -93 -346 l-28 -72 -38 185 c-41 198 -41 214 9 214 29 0 30 9 4 60 -29 56 -60 74 -118 67 -38 -4 -53 -12 -78 -41 -31 -35 -31 -36 -49 -16 -28 31 -97 60 -144 60 -60 0 -116 -32 -142 -81 -42 -83 -18 -273 48 -386 70 -120 215 -186 306 -139 15 8 27 11 27 5 0 -5 32 -9 70 -9 39 0 70 -3 70 -7 0 -5 -34 -71 -77 -148 -42 -77 -87 -160 -100 -185 -34 -62 -82 -137 -120 -188 -18 -24 -33 -50 -33 -57 0 -8 -8 -18 -17 -24 -10 -5 -17 -13 -16 -18 3 -10 -40 -73 -49 -73 -11 0 -10 -57 0 -62 13 -5 169 -626 160 -633 -2 -1 -51 -25 -110 -54 -407 -198 -787 -551 -1340 -1246 -52 -66 -147 -185 -212 -264 -64 -79 -116 -149 -116 -156 0 -19 49 -55 74 -55 23 0 39 19 252 285 237 297 338 415 519 609 301 323 561 532 840 677 119 61 120 62 126 38 16 -57 12 -62 -74 -106 -296 -152 -482 -300 -811 -643 -117 -122 -134 -141 -282 -315 -135 -159 -468 -575 -463 -578 7 -5 60 -27 63 -27 2 0 93 111 203 247 550 687 933 1045 1332 1248 l51 25 5 -22 c3 -13 9 -66 14 -118 5 -58 9 -76 10 -47 l1 47 414 0 414 0 6 31 c3 17 6 41 6 53 1 51 14 51 106 1 330 -177 655 -468 1069 -955 50 -58 104 -123 120 -144 17 -22 62 -78 100 -125 39 -47 95 -117 124 -156 30 -38 57 -73 61 -78 6 -7 70 10 70 19 0 5 -210 270 -382 484 -51 63 -118 141 -148 175 -31 33 -78 86 -105 119 -126 151 -433 439 -599 562 -67 49 -246 159 -324 198 l-72 36 6 43 c4 23 7 43 8 44 1 1 33 -14 71 -34 303 -155 476 -286 772 -582 126 -126 399 -430 470 -523 36 -48 227 -285 322 -401 69 -85 75 -89 105 -83 17 4 38 16 48 28 20 27 17 31 -102 172 -41 49 -102 124 -135 167 -232 300 -471 576 -680 784 -241 241 -350 332 -545 454 -112 71 -267 151 -290 151 -7 0 -10 6 -7 13 2 6 10 46 17 87 18 115 56 269 106 442 l46 157 -29 38 c-35 47 -83 120 -83 129 0 3 -15 27 -33 53 -19 25 -48 71 -66 101 -18 30 -45 75 -60 101 l-28 45 41 -20 c63 -32 205 -30 264 4 59 33 82 74 82 144 0 68 -18 101 -65 116 -26 9 -41 8 -69 -4 -41 -17 -45 -36 -16 -73 42 -54 13 -133 -48 -133 -37 0 -71 25 -88 67 -21 50 -5 97 63 177 124 145 153 187 169 243 39 134 -21 260 -154 320 -67 31 -194 40 -260 19z m-781 -164 c29 -26 34 -42 65 -182 34 -160 33 -190 -5 -190 -69 0 -151 170 -151 313 0 87 35 109 91 59z m725 -1525 c56 -92 84 -145 84 -159 0 -10 -61 -13 -312 -11 -172 2 -315 3 -316 3 -5 0 97 191 111 208 7 9 60 12 206 12 l196 -1 31 -52z m52 -459 c29 -57 52 -109 52 -115 0 -10 -74 -13 -335 -13 -184 0 -335 2 -335 3 0 2 25 54 55 115 l55 112 228 0 227 0 53 -102z"/>
<path d="M4250 4276 c0 -3 22 -58 48 -123 75 -183 120 -346 147 -533 9 -63 33 -212 55 -330 21 -118 44 -248 51 -287 7 -40 15 -73 18 -73 3 1 33 33 65 73 60 73 162 189 247 281 l47 50 63 -12 c63 -12 144 -46 188 -81 l25 -19 -75 -83 c-40 -46 -79 -89 -85 -95 -5 -6 -26 -31 -45 -54 -18 -24 -52 -64 -74 -89 -22 -25 -58 -71 -80 -101 -22 -30 -51 -68 -65 -83 -49 -56 -170 -222 -170 -235 0 -25 31 -24 88 1 86 39 395 161 672 267 69 27 164 63 211 82 l87 33 -47 61 c-25 33 -59 78 -76 100 -321 420 -681 806 -965 1036 -71 57 -330 225 -330 214z"/>
<path d="M3185 4247 c-318 -182 -654 -500 -1091 -1032 -161 -197 -269 -336 -269 -347 0 -6 90 -43 200 -83 211 -75 313 -115 590 -228 266 -109 252 -104 271 -86 11 12 17 42 20 110 5 108 31 377 44 447 4 26 29 171 54 322 25 151 55 323 66 382 19 101 86 323 143 471 14 37 23 67 19 67 -4 0 -25 -11 -47 -23z"/>
<path d="M3406 4030 c-27 -3 -51 -11 -54 -17 -3 -10 80 -13 392 -13 345 0 396 2 396 15 0 13 -39 15 -287 17 -159 1 -313 2 -343 2 -30 1 -77 -1 -104 -4z"/>
<path d="M3156 3823 c-9 -31 -26 -147 -26 -180 l0 -33 625 0 625 0 -6 33 c-6 40 -22 110 -35 160 l-10 37 -584 0 c-547 0 -584 -1 -589 -17z"/>
<path d="M4030 1883 c-36 -1 -171 -10 -300 -19 -129 -8 -329 -21 -445 -29 -115 -8 -259 -21 -320 -30 -140 -20 -337 -57 -332 -62 3 -2 96 1 208 7 183 9 358 20 1229 75 135 9 377 19 538 22 161 3 291 7 289 9 -1 2 -119 10 -261 18 -234 15 -428 17 -606 9z"/>
<path d="M5375 1340 c-22 -11 -71 -46 -109 -77 l-69 -58 54 -5 c39 -4 55 -9 57 -21 2 -14 -8 -18 -50 -24 -117 -14 -135 -24 -119 -67 15 -39 17 -101 4 -105 -7 -2 -23 18 -37 46 -14 27 -30 52 -36 56 -6 4 -46 -14 -89 -39 -81 -46 -131 -65 -131 -49 0 5 38 46 84 91 115 112 117 115 80 107 -16 -4 -54 -16 -84 -27 -30 -11 -90 -22 -134 -25 -75 -6 -78 -5 -68 13 6 10 37 27 69 39 l59 20 -586 -2 c-1060 -3 -1427 -18 -1530 -64 -24 -11 -24 -12 -4 -19 11 -5 56 -13 100 -20 97 -14 184 -37 184 -50 0 -29 -206 -23 -330 10 -78 20 -140 26 -140 12 0 -4 14 -30 30 -56 37 -57 42 -89 17 -94 -25 -5 -100 74 -113 118 -5 18 -14 35 -20 37 -5 2 -31 -39 -58 -92 -67 -136 -82 -128 -46 23 21 88 20 102 -8 102 -9 0 -41 11 -70 25 -79 37 -141 34 -229 -10 -197 -99 -262 -285 -160 -465 47 -85 177 -208 277 -264 160 -89 352 -143 615 -173 220 -25 856 -25 1085 0 296 32 485 64 725 123 103 25 364 100 400 114 79 32 264 125 312 158 151 103 309 306 343 444 17 67 -6 140 -65 206 -74 82 -134 100 -210 62z"/>
</g>
<g id="layer103" fill="#fefefe" stroke="none">
<path d="M6167 7003 c-3 -6 159 -786 187 -899 6 -23 9 -24 101 -24 l95 0 -7 30 -6 30 36 -15 c84 -35 175 -8 211 61 17 31 20 57 19 129 -2 188 -68 332 -177 384 -45 23 -167 29 -196 11 -15 -9 -18 -1 -59 201 l-12 56 -82 18 c-45 10 -87 20 -93 22 -7 2 -14 1 -17 -4z m365 -422 c59 -47 112 -247 86 -327 -16 -48 -44 -55 -82 -22 -23 20 -31 45 -61 187 -19 90 -32 168 -29 172 9 16 61 9 86 -10z"/>
<path d="M4032 6736 c-104 -34 -159 -114 -149 -217 6 -68 34 -119 80 -148 54 -33 138 -31 172 4 39 38 33 59 -20 73 -124 33 -104 202 23 202 37 0 88 -33 107 -69 21 -41 19 -104 -4 -149 -11 -21 -56 -83 -100 -137 -101 -124 -121 -164 -121 -239 0 -72 20 -116 74 -162 109 -93 323 -81 386 22 25 40 27 134 4 169 -24 36 -74 49 -118 31 -41 -17 -45 -36 -16 -73 42 -54 13 -133 -48 -133 -37 0 -71 25 -88 67 -21 50 -5 97 63 177 124 145 153 187 169 243 39 134 -21 260 -154 320 -67 31 -194 40 -260 19z"/>
<path d="M3048 6709 c-57 -29 -79 -82 -79 -183 1 -143 51 -268 141 -349 71 -63 169 -86 233 -53 15 8 27 11 27 5 0 -5 42 -9 95 -9 52 0 95 3 95 6 0 4 -21 105 -46 226 -49 234 -49 248 2 248 29 0 30 9 4 60 -29 56 -60 74 -118 67 -38 -4 -53 -12 -78 -41 -31 -35 -31 -36 -49 -16 -51 57 -159 75 -227 39z m203 -137 c29 -26 34 -42 65 -182 34 -160 33 -190 -5 -190 -69 0 -151 170 -151 313 0 87 35 109 91 59z"/>
<path d="M6944 6719 c-75 -22 -124 -122 -109 -222 21 -141 54 -225 116 -292 57 -62 109 -87 189 -92 122 -8 176 50 151 162 -23 100 -98 171 -210 198 -50 12 -51 12 -51 49 0 44 28 78 63 78 22 0 67 -20 114 -50 12 -8 25 -12 28 -8 12 12 -37 118 -66 142 -50 43 -148 58 -225 35z m135 -323 c64 -34 122 -136 106 -186 -20 -62 -95 34 -139 178 -9 26 -4 27 33 8z"/>
<path d="M350 6711 c0 -15 157 -742 161 -746 7 -7 180 -27 185 -22 3 3 -26 148 -64 324 -48 222 -66 320 -58 325 6 4 26 8 45 8 74 0 138 -91 182 -255 31 -114 33 -315 4 -364 -35 -60 -67 -76 -148 -76 -175 2 -287 117 -275 285 6 80 1 83 -70 54 -46 -18 -62 -47 -62 -110 0 -59 20 -103 71 -158 87 -96 204 -141 364 -141 100 0 115 2 167 28 60 30 96 69 131 145 19 41 22 64 22 172 -1 142 -16 212 -71 327 -38 81 -117 173 -168 197 -48 23 -138 21 -186 -4 l-40 -20 0 20 c0 19 -6 20 -95 20 -52 0 -95 -4 -95 -9z"/>
<path d="M1140 6713 c-36 -14 -73 -49 -87 -81 -31 -74 -9 -253 44 -356 23 -45 93 -116 138 -138 57 -30 159 -35 205 -11 70 36 77 140 17 230 -38 56 -119 109 -183 119 l-44 6 0 43 c0 57 19 75 77 75 56 0 95 -18 152 -70 24 -22 49 -40 57 -40 16 0 17 -3 54 -180 16 -80 32 -155 35 -167 5 -22 10 -23 101 -23 86 0 95 2 90 18 -21 75 -88 423 -83 436 15 38 85 9 113 -47 9 -18 20 -34 23 -37 4 -3 12 -34 19 -69 38 -185 157 -311 296 -311 23 0 53 6 67 14 l27 14 22 -107 c12 -58 26 -110 31 -115 11 -12 178 -35 184 -26 2 3 -27 152 -66 331 -38 178 -68 333 -67 344 7 50 82 18 108 -46 7 -16 18 -29 26 -29 16 0 17 -3 54 -180 16 -80 32 -155 35 -167 5 -22 10 -23 100 -23 l95 0 -6 27 -7 27 33 -24 c19 -13 52 -25 81 -28 41 -4 51 -1 73 21 20 21 26 36 26 72 0 62 -33 98 -88 93 -32 -3 -40 -8 -55 -40 -18 -37 -19 -38 -47 -23 -16 8 -32 21 -37 27 -4 7 -29 110 -54 228 l-45 215 -93 3 -94 3 6 -40 c5 -39 5 -39 -15 -19 -74 74 -219 76 -258 4 l-14 -26 -30 29 c-45 42 -68 51 -134 51 -69 0 -117 -26 -143 -78 l-17 -33 -21 30 c-48 67 -189 103 -260 66 -32 -16 -61 -69 -61 -110 0 -26 -2 -25 -64 33 -77 71 -130 92 -230 91 -39 0 -78 -3 -86 -6z m1001 -151 c29 -26 35 -42 64 -178 33 -154 33 -184 -4 -184 -68 0 -151 169 -151 306 0 84 35 106 91 56z m-862 -166 c64 -33 120 -129 107 -182 -17 -65 -93 20 -129 144 -9 28 -14 52 -11 52 3 0 18 -7 33 -14z"/>
<path d="M4500 6703 c0 -20 161 -776 167 -782 7 -9 178 -29 185 -22 3 3 -6 63 -21 132 l-27 126 44 -20 c65 -28 134 -20 175 21 43 43 47 105 13 247 -38 167 -38 185 3 185 33 0 54 -17 76 -61 9 -16 20 -29 25 -29 6 0 10 -12 10 -27 0 -85 53 -207 120 -277 74 -79 181 -109 253 -72 15 8 27 11 27 5 0 -5 42 -9 95 -9 52 0 95 3 95 7 0 3 -20 101 -45 216 -25 115 -43 218 -40 228 10 29 59 25 84 -8 12 -14 24 -37 27 -50 4 -12 12 -23 19 -23 17 0 18 -3 55 -180 16 -80 32 -155 35 -167 5 -22 10 -23 100 -23 l95 0 -6 27 -7 27 33 -24 c19 -13 52 -25 81 -28 41 -4 51 -1 73 21 20 21 26 36 26 72 0 62 -33 98 -88 93 -32 -3 -40 -8 -55 -40 -18 -37 -19 -38 -47 -23 -16 8 -32 21 -37 27 -4 7 -29 110 -54 228 l-45 215 -93 3 -93 3 4 -34 4 -33 -43 30 c-35 24 -56 31 -107 34 -72 5 -99 -6 -125 -49 -12 -20 -21 -27 -26 -19 -4 6 -25 25 -47 41 -35 25 -50 29 -103 29 -72 0 -120 -25 -145 -75 l-14 -30 -36 39 c-44 50 -84 66 -159 66 -49 0 -65 -4 -90 -26 -56 -47 -59 -112 -15 -286 18 -71 21 -135 6 -150 -18 -18 -58 5 -78 44 -10 18 -36 119 -59 223 l-41 190 -92 3 c-83 2 -92 1 -92 -15z m926 -128 c29 -20 40 -50 73 -205 30 -140 29 -170 -8 -170 -49 0 -106 83 -135 197 -19 72 -21 164 -4 181 16 16 49 15 74 -3z"/>
<path d="M1681 6066 c-90 -50 -50 -186 55 -186 55 0 104 47 104 100 0 76 -90 124 -159 86z"/>
<path d="M3922 3219 c-11 -30 -47 -117 -80 -194 -121 -288 -218 -622 -268 -920 -13 -82 -27 -160 -29 -173 -5 -20 -2 -22 18 -17 13 4 64 10 113 13 l88 7 8 45 c76 430 174 778 308 1092 47 109 58 143 48 150 -41 28 -78 41 -128 45 l-56 5 -22 -53z"/>
<path d="M4873 3173 c-235 -255 -501 -595 -689 -878 -79 -119 -217 -345 -213 -348 2 -2 49 -1 104 1 l100 4 30 51 c17 28 41 69 54 91 39 66 199 304 265 394 195 267 269 361 459 586 l119 140 -35 18 c-19 9 -52 20 -74 24 -38 6 -39 5 -120 -83z"/>
<path d="M3950 1879 c-131 -7 -290 -18 -740 -50 -202 -14 -551 -66 -569 -84 -3 -4 28 -4 69 -1 41 3 136 8 210 11 74 3 306 17 515 30 209 13 493 31 630 40 138 9 382 19 543 22 161 3 291 7 289 9 -1 2 -119 10 -261 18 -272 17 -447 18 -686 5z"/>
<path d="M5375 1340 c-22 -11 -71 -46 -109 -77 l-69 -58 54 -5 c39 -4 55 -9 57 -21 2 -14 -8 -18 -50 -24 -117 -14 -135 -24 -119 -67 15 -39 17 -101 4 -105 -7 -2 -23 18 -37 46 -14 27 -30 52 -36 56 -6 4 -46 -14 -89 -39 -81 -46 -131 -65 -131 -49 0 5 38 46 84 91 115 112 117 115 80 107 -16 -4 -54 -16 -84 -27 -62 -22 -210 -37 -210 -21 0 16 21 29 80 49 56 19 55 19 -530 17 -1060 -3 -1427 -18 -1530 -64 -24 -11 -24 -12 -4 -19 11 -5 56 -13 100 -20 97 -14 184 -37 184 -50 0 -29 -206 -23 -330 10 -78 20 -140 26 -140 12 0 -4 14 -30 30 -56 37 -57 42 -89 17 -94 -25 -5 -100 74 -113 118 -5 18 -14 35 -20 37 -5 2 -31 -39 -58 -92 -67 -136 -82 -128 -46 23 21 88 20 102 -8 102 -9 0 -41 11 -70 25 -79 37 -141 34 -229 -10 -197 -99 -262 -285 -160 -465 47 -85 177 -208 277 -264 160 -89 352 -143 615 -173 220 -25 856 -25 1085 0 296 32 485 64 725 123 103 25 364 100 400 114 79 32 264 125 312 158 151 103 309 306 343 444 17 67 -6 140 -65 206 -74 82 -134 100 -210 62z"/>
</g>


</svg>